<?xml version="1.0" encoding="utf-8" standalone="no"?>
<!DOCTYPE svg PUBLIC "-//W3C//DTD SVG 1.1//EN"
  "http://www.w3.org/Graphics/SVG/1.1/DTD/svg11.dtd">
<svg xmlns:xlink="http://www.w3.org/1999/xlink" width="360pt" height="252pt" viewBox="0 0 360 252" xmlns="http://www.w3.org/2000/svg" version="1.1">
 <metadata>
  <rdf:RDF xmlns:dc="http://purl.org/dc/elements/1.1/" xmlns:cc="http://creativecommons.org/ns#" xmlns:rdf="http://www.w3.org/1999/02/22-rdf-syntax-ns#">
   <cc:Work>
    <dc:type rdf:resource="http://purl.org/dc/dcmitype/StillImage"/>
    <dc:date>2024-07-31T16:41:19.287592</dc:date>
    <dc:format>image/svg+xml</dc:format>
    <dc:creator>
     <cc:Agent>
      <dc:title>Matplotlib v3.8.0, https://matplotlib.org/</dc:title>
     </cc:Agent>
    </dc:creator>
   </cc:Work>
  </rdf:RDF>
 </metadata>
 <defs>
  <style type="text/css">*{stroke-linejoin: round; stroke-linecap: butt}</style>
 </defs>
 <g id="figure_1">
  <g id="patch_1">
   <path d="M 0 252 
L 360 252 
L 360 0 
L 0 0 
z
" style="fill: #ffffff"/>
  </g>
  <g id="axes_1">
   <g id="patch_2">
    <path d="M 45 224.28 
L 324 224.28 
L 324 30.24 
L 45 30.24 
z
" style="fill: #ffffff"/>
   </g>
   <g id="PolyCollection_1">
    <defs>
     <path id="m77658541eb" d="M 81.729753 -27.79489 
L 81.729753 -27.72 
L 82.883464 -27.72 
L 84.037174 -27.72 
L 85.190885 -27.72 
L 86.344596 -27.72 
L 87.498306 -27.72 
L 88.652017 -27.72 
L 89.805728 -27.72 
L 90.959439 -27.72 
L 92.113149 -27.72 
L 93.26686 -27.72 
L 94.420571 -27.72 
L 95.574281 -27.72 
L 96.727992 -27.72 
L 97.881703 -27.72 
L 99.035413 -27.72 
L 100.189124 -27.72 
L 101.342835 -27.72 
L 102.496546 -27.72 
L 103.650256 -27.72 
L 104.803967 -27.72 
L 105.957678 -27.72 
L 107.111388 -27.72 
L 108.265099 -27.72 
L 109.41881 -27.72 
L 110.57252 -27.72 
L 111.726231 -27.72 
L 112.879942 -27.72 
L 114.033652 -27.72 
L 115.187363 -27.72 
L 116.341074 -27.72 
L 117.494785 -27.72 
L 118.648495 -27.72 
L 119.802206 -27.72 
L 120.955917 -27.72 
L 122.109627 -27.72 
L 123.263338 -27.72 
L 124.417049 -27.72 
L 125.570759 -27.72 
L 126.72447 -27.72 
L 127.878181 -27.72 
L 129.031892 -27.72 
L 130.185602 -27.72 
L 131.339313 -27.72 
L 132.493024 -27.72 
L 133.646734 -27.72 
L 134.800445 -27.72 
L 135.954156 -27.72 
L 137.107866 -27.72 
L 138.261577 -27.72 
L 139.415288 -27.72 
L 140.568999 -27.72 
L 141.722709 -27.72 
L 142.87642 -27.72 
L 144.030131 -27.72 
L 145.183841 -27.72 
L 146.337552 -27.72 
L 147.491263 -27.72 
L 148.644973 -27.72 
L 149.798684 -27.72 
L 150.952395 -27.72 
L 152.106106 -27.72 
L 153.259816 -27.72 
L 154.413527 -27.72 
L 155.567238 -27.72 
L 156.720948 -27.72 
L 157.874659 -27.72 
L 159.02837 -27.72 
L 160.18208 -27.72 
L 161.335791 -27.72 
L 162.489502 -27.72 
L 163.643212 -27.72 
L 164.796923 -27.72 
L 165.950634 -27.72 
L 167.104345 -27.72 
L 168.258055 -27.72 
L 169.411766 -27.72 
L 170.565477 -27.72 
L 171.719187 -27.72 
L 172.872898 -27.72 
L 174.026609 -27.72 
L 175.180319 -27.72 
L 176.33403 -27.72 
L 177.487741 -27.72 
L 178.641452 -27.72 
L 179.795162 -27.72 
L 180.948873 -27.72 
L 182.102584 -27.72 
L 183.256294 -27.72 
L 184.410005 -27.72 
L 185.563716 -27.72 
L 186.717426 -27.72 
L 187.871137 -27.72 
L 189.024848 -27.72 
L 190.178559 -27.72 
L 191.332269 -27.72 
L 192.48598 -27.72 
L 193.639691 -27.72 
L 194.793401 -27.72 
L 195.947112 -27.72 
L 197.100823 -27.72 
L 198.254533 -27.72 
L 199.408244 -27.72 
L 200.561955 -27.72 
L 201.715666 -27.72 
L 202.869376 -27.72 
L 204.023087 -27.72 
L 205.176798 -27.72 
L 206.330508 -27.72 
L 207.484219 -27.72 
L 208.63793 -27.72 
L 209.79164 -27.72 
L 210.945351 -27.72 
L 212.099062 -27.72 
L 213.252773 -27.72 
L 214.406483 -27.72 
L 215.560194 -27.72 
L 216.713905 -27.72 
L 217.867615 -27.72 
L 219.021326 -27.72 
L 220.175037 -27.72 
L 221.328747 -27.72 
L 222.482458 -27.72 
L 223.636169 -27.72 
L 224.789879 -27.72 
L 225.94359 -27.72 
L 227.097301 -27.72 
L 228.251012 -27.72 
L 229.404722 -27.72 
L 230.558433 -27.72 
L 231.712144 -27.72 
L 232.865854 -27.72 
L 234.019565 -27.72 
L 235.173276 -27.72 
L 236.326986 -27.72 
L 237.480697 -27.72 
L 238.634408 -27.72 
L 239.788119 -27.72 
L 240.941829 -27.72 
L 242.09554 -27.72 
L 243.249251 -27.72 
L 244.402961 -27.72 
L 245.556672 -27.72 
L 246.710383 -27.72 
L 247.864093 -27.72 
L 249.017804 -27.72 
L 250.171515 -27.72 
L 251.325226 -27.72 
L 252.478936 -27.72 
L 253.632647 -27.72 
L 254.786358 -27.72 
L 255.940068 -27.72 
L 257.093779 -27.72 
L 258.24749 -27.72 
L 259.4012 -27.72 
L 260.554911 -27.72 
L 261.708622 -27.72 
L 262.862333 -27.72 
L 264.016043 -27.72 
L 265.169754 -27.72 
L 266.323465 -27.72 
L 267.477175 -27.72 
L 268.630886 -27.72 
L 269.784597 -27.72 
L 270.938307 -27.72 
L 272.092018 -27.72 
L 273.245729 -27.72 
L 274.399439 -27.72 
L 275.55315 -27.72 
L 276.706861 -27.72 
L 277.860572 -27.72 
L 279.014282 -27.72 
L 280.167993 -27.72 
L 281.321704 -27.72 
L 282.475414 -27.72 
L 283.629125 -27.72 
L 284.782836 -27.72 
L 285.936546 -27.72 
L 287.090257 -27.72 
L 288.243968 -27.72 
L 289.397679 -27.72 
L 290.551389 -27.72 
L 291.7051 -27.72 
L 292.858811 -27.72 
L 294.012521 -27.72 
L 295.166232 -27.72 
L 296.319943 -27.72 
L 297.473653 -27.72 
L 298.627364 -27.72 
L 299.781075 -27.72 
L 300.934786 -27.72 
L 302.088496 -27.72 
L 303.242207 -27.72 
L 304.395918 -27.72 
L 305.549628 -27.72 
L 306.703339 -27.72 
L 307.85705 -27.72 
L 309.01076 -27.72 
L 310.164471 -27.72 
L 311.318182 -27.72 
L 311.318182 -27.796785 
L 311.318182 -27.796785 
L 310.164471 -27.83427 
L 309.01076 -27.887201 
L 307.85705 -27.960589 
L 306.703339 -28.060518 
L 305.549628 -28.194181 
L 304.395918 -28.369855 
L 303.242207 -28.596818 
L 302.088496 -28.88518 
L 300.934786 -29.245676 
L 299.781075 -29.689401 
L 298.627364 -30.227542 
L 297.473653 -30.871106 
L 296.319943 -31.630689 
L 295.166232 -32.516258 
L 294.012521 -33.536948 
L 292.858811 -34.70081 
L 291.7051 -36.014444 
L 290.551389 -37.48244 
L 289.397679 -39.106549 
L 288.243968 -40.884556 
L 287.090257 -42.808881 
L 285.936546 -44.865019 
L 284.782836 -47.030008 
L 283.629125 -49.271205 
L 282.475414 -51.545677 
L 281.321704 -53.800518 
L 280.167993 -55.974323 
L 279.014282 -57.99993 
L 277.860572 -59.808373 
L 276.706861 -61.333777 
L 275.55315 -62.518765 
L 274.399439 -63.319803 
L 273.245729 -63.71186 
L 272.092018 -63.691782 
L 270.938307 -63.279917 
L 269.784597 -62.519724 
L 268.630886 -61.47534 
L 267.477175 -60.227322 
L 266.323465 -58.867004 
L 265.169754 -57.490039 
L 264.016043 -56.189766 
L 262.862333 -55.051014 
L 261.708622 -54.144845 
L 260.554911 -53.524594 
L 259.4012 -53.223396 
L 258.24749 -53.253214 
L 257.093779 -53.605274 
L 255.940068 -54.251716 
L 254.786358 -55.148245 
L 253.632647 -56.237557 
L 252.478936 -57.453345 
L 251.325226 -58.724709 
L 250.171515 -59.980794 
L 249.017804 -61.155491 
L 247.864093 -62.191963 
L 246.710383 -63.046766 
L 245.556672 -63.693235 
L 244.402961 -64.123854 
L 243.249251 -64.351307 
L 242.09554 -64.408004 
L 240.941829 -64.344004 
L 239.788119 -64.223394 
L 238.634408 -64.119376 
L 237.480697 -64.108455 
L 236.326986 -64.264246 
L 235.173276 -64.651467 
L 234.019565 -65.320691 
L 232.865854 -66.304306 
L 231.712144 -67.614042 
L 230.558433 -69.240212 
L 229.404722 -71.152661 
L 228.251012 -73.303244 
L 227.097301 -75.629574 
L 225.94359 -78.059682 
L 224.789879 -80.517238 
L 223.636169 -82.926989 
L 222.482458 -85.220123 
L 221.328747 -87.339241 
L 220.175037 -89.242718 
L 219.021326 -90.908134 
L 217.867615 -92.334531 
L 216.713905 -93.543209 
L 215.560194 -94.576826 
L 214.406483 -95.496671 
L 213.252773 -96.378106 
L 212.099062 -97.304376 
L 210.945351 -98.359193 
L 209.79164 -99.618689 
L 208.63793 -101.143482 
L 207.484219 -102.971649 
L 206.330508 -105.11336 
L 205.176798 -107.54777 
L 204.023087 -110.222557 
L 202.869376 -113.056202 
L 201.715666 -115.942828 
L 200.561955 -118.759165 
L 199.408244 -121.373013 
L 198.254533 -123.652442 
L 197.100823 -125.47496 
L 195.947112 -126.735897 
L 194.793401 -127.355363 
L 193.639691 -127.283289 
L 192.48598 -126.502225 
L 191.332269 -125.027772 
L 190.178559 -122.906705 
L 189.024848 -120.213035 
L 187.871137 -117.042412 
L 186.717426 -113.505406 
L 185.563716 -109.72025 
L 184.410005 -105.805691 
L 183.256294 -101.874486 
L 182.102584 -98.028046 
L 180.948873 -94.352491 
L 179.795162 -90.916277 
L 178.641452 -87.769316 
L 177.487741 -84.94337 
L 176.33403 -82.453405 
L 175.180319 -80.299522 
L 174.026609 -78.469124 
L 172.872898 -76.93902 
L 171.719187 -75.677331 
L 170.565477 -74.645113 
L 169.411766 -73.797805 
L 168.258055 -73.086586 
L 167.104345 -72.459842 
L 165.950634 -71.864822 
L 164.796923 -71.249574 
L 163.643212 -70.565102 
L 162.489502 -69.767622 
L 161.335791 -68.82072 
L 160.18208 -67.697188 
L 159.02837 -66.380326 
L 157.874659 -64.864549 
L 156.720948 -63.155237 
L 155.567238 -61.26786 
L 154.413527 -59.226477 
L 153.259816 -57.06181 
L 152.106106 -54.809098 
L 150.952395 -52.505924 
L 149.798684 -50.190219 
L 148.644973 -47.898532 
L 147.491263 -45.664652 
L 146.337552 -43.518581 
L 145.183841 -41.485841 
L 144.030131 -39.587065 
L 142.87642 -37.837827 
L 141.722709 -36.248671 
L 140.568999 -34.825306 
L 139.415288 -33.568963 
L 138.261577 -32.47688 
L 137.107866 -31.542932 
L 135.954156 -30.758354 
L 134.800445 -30.112551 
L 133.646734 -29.59394 
L 132.493024 -29.190768 
L 131.339313 -28.891866 
L 130.185602 -28.687265 
L 129.031892 -28.568633 
L 127.878181 -28.529504 
L 126.72447 -28.565249 
L 125.570759 -28.672817 
L 124.417049 -28.850235 
L 123.263338 -29.09591 
L 122.109627 -29.407797 
L 120.955917 -29.782515 
L 119.802206 -30.214488 
L 118.648495 -30.695252 
L 117.494785 -31.212995 
L 116.341074 -31.75245 
L 115.187363 -32.295192 
L 114.033652 -32.820352 
L 112.879942 -33.305723 
L 111.726231 -33.729174 
L 110.57252 -34.070231 
L 109.41881 -34.311658 
L 108.265099 -34.440875 
L 107.111388 -34.451012 
L 105.957678 -34.341513 
L 104.803967 -34.118169 
L 103.650256 -33.79261 
L 102.496546 -33.3813 
L 101.342835 -32.904154 
L 100.189124 -32.382948 
L 99.035413 -31.839687 
L 97.881703 -31.295104 
L 96.727992 -30.767432 
L 95.574281 -30.271528 
L 94.420571 -29.818396 
L 93.26686 -29.4151 
L 92.113149 -29.065006 
L 90.959439 -28.768272 
L 89.805728 -28.522499 
L 88.652017 -28.323443 
L 87.498306 -28.165706 
L 86.344596 -28.043357 
L 85.190885 -27.950428 
L 84.037174 -27.881291 
L 82.883464 -27.830894 
L 81.729753 -27.79489 
z
" style="stroke: #2ca02c"/>
    </defs>
    <g clip-path="url(#p37d2f159cc)">
     <use xlink:href="#m77658541eb" x="0" y="252" style="fill: #2ca02c; fill-opacity: 0.25; stroke: #2ca02c"/>
    </g>
   </g>
   <g id="PolyCollection_2">
    <defs>
     <path id="mf645f77160" d="M 86.59825 -27.82254 
L 86.59825 -27.72 
L 87.43489 -27.72 
L 88.271531 -27.72 
L 89.108172 -27.72 
L 89.944812 -27.72 
L 90.781453 -27.72 
L 91.618094 -27.72 
L 92.454734 -27.72 
L 93.291375 -27.72 
L 94.128016 -27.72 
L 94.964656 -27.72 
L 95.801297 -27.72 
L 96.637938 -27.72 
L 97.474578 -27.72 
L 98.311219 -27.72 
L 99.14786 -27.72 
L 99.9845 -27.72 
L 100.821141 -27.72 
L 101.657782 -27.72 
L 102.494423 -27.72 
L 103.331063 -27.72 
L 104.167704 -27.72 
L 105.004345 -27.72 
L 105.840985 -27.72 
L 106.677626 -27.72 
L 107.514267 -27.72 
L 108.350907 -27.72 
L 109.187548 -27.72 
L 110.024189 -27.72 
L 110.860829 -27.72 
L 111.69747 -27.72 
L 112.534111 -27.72 
L 113.370751 -27.72 
L 114.207392 -27.72 
L 115.044033 -27.72 
L 115.880673 -27.72 
L 116.717314 -27.72 
L 117.553955 -27.72 
L 118.390595 -27.72 
L 119.227236 -27.72 
L 120.063877 -27.72 
L 120.900517 -27.72 
L 121.737158 -27.72 
L 122.573799 -27.72 
L 123.410439 -27.72 
L 124.24708 -27.72 
L 125.083721 -27.72 
L 125.920361 -27.72 
L 126.757002 -27.72 
L 127.593643 -27.72 
L 128.430284 -27.72 
L 129.266924 -27.72 
L 130.103565 -27.72 
L 130.940206 -27.72 
L 131.776846 -27.72 
L 132.613487 -27.72 
L 133.450128 -27.72 
L 134.286768 -27.72 
L 135.123409 -27.72 
L 135.96005 -27.72 
L 136.79669 -27.72 
L 137.633331 -27.72 
L 138.469972 -27.72 
L 139.306612 -27.72 
L 140.143253 -27.72 
L 140.979894 -27.72 
L 141.816534 -27.72 
L 142.653175 -27.72 
L 143.489816 -27.72 
L 144.326456 -27.72 
L 145.163097 -27.72 
L 145.999738 -27.72 
L 146.836378 -27.72 
L 147.673019 -27.72 
L 148.50966 -27.72 
L 149.3463 -27.72 
L 150.182941 -27.72 
L 151.019582 -27.72 
L 151.856222 -27.72 
L 152.692863 -27.72 
L 153.529504 -27.72 
L 154.366144 -27.72 
L 155.202785 -27.72 
L 156.039426 -27.72 
L 156.876067 -27.72 
L 157.712707 -27.72 
L 158.549348 -27.72 
L 159.385989 -27.72 
L 160.222629 -27.72 
L 161.05927 -27.72 
L 161.895911 -27.72 
L 162.732551 -27.72 
L 163.569192 -27.72 
L 164.405833 -27.72 
L 165.242473 -27.72 
L 166.079114 -27.72 
L 166.915755 -27.72 
L 167.752395 -27.72 
L 168.589036 -27.72 
L 169.425677 -27.72 
L 170.262317 -27.72 
L 171.098958 -27.72 
L 171.935599 -27.72 
L 172.772239 -27.72 
L 173.60888 -27.72 
L 174.445521 -27.72 
L 175.282161 -27.72 
L 176.118802 -27.72 
L 176.955443 -27.72 
L 177.792083 -27.72 
L 178.628724 -27.72 
L 179.465365 -27.72 
L 180.302005 -27.72 
L 181.138646 -27.72 
L 181.975287 -27.72 
L 182.811927 -27.72 
L 183.648568 -27.72 
L 184.485209 -27.72 
L 185.32185 -27.72 
L 186.15849 -27.72 
L 186.995131 -27.72 
L 187.831772 -27.72 
L 188.668412 -27.72 
L 189.505053 -27.72 
L 190.341694 -27.72 
L 191.178334 -27.72 
L 192.014975 -27.72 
L 192.851616 -27.72 
L 193.688256 -27.72 
L 194.524897 -27.72 
L 195.361538 -27.72 
L 196.198178 -27.72 
L 197.034819 -27.72 
L 197.87146 -27.72 
L 198.7081 -27.72 
L 199.544741 -27.72 
L 200.381382 -27.72 
L 201.218022 -27.72 
L 202.054663 -27.72 
L 202.891304 -27.72 
L 203.727944 -27.72 
L 204.564585 -27.72 
L 205.401226 -27.72 
L 206.237866 -27.72 
L 207.074507 -27.72 
L 207.911148 -27.72 
L 208.747788 -27.72 
L 209.584429 -27.72 
L 210.42107 -27.72 
L 211.25771 -27.72 
L 212.094351 -27.72 
L 212.930992 -27.72 
L 213.767633 -27.72 
L 214.604273 -27.72 
L 215.440914 -27.72 
L 216.277555 -27.72 
L 217.114195 -27.72 
L 217.950836 -27.72 
L 218.787477 -27.72 
L 219.624117 -27.72 
L 220.460758 -27.72 
L 221.297399 -27.72 
L 222.134039 -27.72 
L 222.97068 -27.72 
L 223.807321 -27.72 
L 224.643961 -27.72 
L 225.480602 -27.72 
L 226.317243 -27.72 
L 227.153883 -27.72 
L 227.990524 -27.72 
L 228.827165 -27.72 
L 229.663805 -27.72 
L 230.500446 -27.72 
L 231.337087 -27.72 
L 232.173727 -27.72 
L 233.010368 -27.72 
L 233.847009 -27.72 
L 234.683649 -27.72 
L 235.52029 -27.72 
L 236.356931 -27.72 
L 237.193571 -27.72 
L 238.030212 -27.72 
L 238.866853 -27.72 
L 239.703494 -27.72 
L 240.540134 -27.72 
L 241.376775 -27.72 
L 242.213416 -27.72 
L 243.050056 -27.72 
L 243.886697 -27.72 
L 244.723338 -27.72 
L 245.559978 -27.72 
L 246.396619 -27.72 
L 247.23326 -27.72 
L 248.0699 -27.72 
L 248.906541 -27.72 
L 249.743182 -27.72 
L 250.579822 -27.72 
L 251.416463 -27.72 
L 252.253104 -27.72 
L 253.089744 -27.72 
L 253.089744 -27.817472 
L 253.089744 -27.817472 
L 252.253104 -27.859347 
L 251.416463 -27.916508 
L 250.579822 -27.993373 
L 249.743182 -28.095195 
L 248.906541 -28.228067 
L 248.0699 -28.398868 
L 247.23326 -28.615152 
L 246.396619 -28.884942 
L 245.559978 -29.216453 
L 244.723338 -29.617734 
L 243.886697 -30.096239 
L 243.050056 -30.658355 
L 242.213416 -31.308926 
L 241.376775 -32.050798 
L 240.540134 -32.884443 
L 239.703494 -33.807704 
L 238.866853 -34.815709 
L 238.030212 -35.900979 
L 237.193571 -37.053748 
L 236.356931 -38.262497 
L 235.52029 -39.514678 
L 234.683649 -40.797577 
L 233.847009 -42.099254 
L 233.010368 -43.409483 
L 232.173727 -44.720595 
L 231.337087 -46.028147 
L 230.500446 -47.331328 
L 229.663805 -48.633045 
L 228.827165 -49.939642 
L 227.990524 -51.260264 
L 227.153883 -52.605858 
L 226.317243 -53.987904 
L 225.480602 -55.416943 
L 224.643961 -56.901031 
L 223.807321 -58.444244 
L 222.97068 -60.045386 
L 222.134039 -61.697027 
L 221.297399 -63.384983 
L 220.460758 -65.088346 
L 219.624117 -66.78007 
L 218.787477 -68.428152 
L 217.950836 -69.997302 
L 217.114195 -71.45104 
L 216.277555 -72.75404 
L 215.440914 -73.874554 
L 214.604273 -74.786737 
L 213.767633 -75.472665 
L 212.930992 -75.923901 
L 212.094351 -76.142478 
L 211.25771 -76.141208 
L 210.42107 -75.943302 
L 209.584429 -75.581325 
L 208.747788 -75.095556 
L 207.911148 -74.531879 
L 207.074507 -73.939347 
L 206.237866 -73.367586 
L 205.401226 -72.86421 
L 204.564585 -72.472412 
L 203.727944 -72.228871 
L 202.891304 -72.162112 
L 202.054663 -72.291388 
L 201.218022 -72.62616 
L 200.381382 -73.166186 
L 199.544741 -73.902194 
L 198.7081 -74.817096 
L 197.87146 -75.88764 
L 197.034819 -77.086398 
L 196.198178 -78.383934 
L 195.361538 -79.750999 
L 194.524897 -81.160601 
L 193.688256 -82.589776 
L 192.851616 -84.020926 
L 192.014975 -85.442617 
L 191.178334 -86.849759 
L 190.341694 -88.243144 
L 189.505053 -89.62839 
L 188.668412 -91.014355 
L 187.831772 -92.411197 
L 186.995131 -93.828222 
L 186.15849 -95.271767 
L 185.32185 -96.743302 
L 184.485209 -98.237973 
L 183.648568 -99.743738 
L 182.811927 -101.241213 
L 181.975287 -102.704281 
L 181.138646 -104.101437 
L 180.302005 -105.397777 
L 179.465365 -106.557485 
L 178.628724 -107.54662 
L 177.792083 -108.335976 
L 176.955443 -108.903773 
L 176.118802 -109.23798 
L 175.282161 -109.33805 
L 174.445521 -109.215941 
L 173.60888 -108.896324 
L 172.772239 -108.415945 
L 171.935599 -107.822177 
L 171.098958 -107.170849 
L 170.262317 -106.523492 
L 169.425677 -105.944183 
L 168.589036 -105.49619 
L 167.752395 -105.23863 
L 166.915755 -105.223356 
L 166.079114 -105.492244 
L 165.242473 -106.075053 
L 164.405833 -106.987952 
L 163.569192 -108.23278 
L 162.732551 -109.797038 
L 161.895911 -111.65458 
L 161.05927 -113.766909 
L 160.222629 -116.084944 
L 159.385989 -118.551133 
L 158.549348 -121.101741 
L 157.712707 -123.669156 
L 156.876067 -126.184089 
L 156.039426 -128.57755 
L 155.202785 -130.782536 
L 154.366144 -132.735384 
L 153.529504 -134.376827 
L 152.692863 -135.652776 
L 151.856222 -136.514926 
L 151.019582 -136.921261 
L 150.182941 -136.836571 
L 149.3463 -136.233048 
L 148.50966 -135.091003 
L 147.673019 -133.399728 
L 146.836378 -131.158438 
L 145.999738 -128.377232 
L 145.163097 -125.077931 
L 144.326456 -121.29466 
L 143.489816 -117.074027 
L 142.653175 -112.47477 
L 141.816534 -107.56679 
L 140.979894 -102.429527 
L 140.143253 -97.149716 
L 139.306612 -91.818617 
L 138.469972 -86.528858 
L 137.633331 -81.371096 
L 136.79669 -76.430709 
L 135.96005 -71.784728 
L 135.123409 -67.499219 
L 134.286768 -63.627273 
L 133.450128 -60.207705 
L 132.613487 -57.26452 
L 131.776846 -54.807132 
L 130.940206 -52.831261 
L 130.103565 -51.320399 
L 129.266924 -50.247684 
L 128.430284 -49.578028 
L 127.593643 -49.270305 
L 126.757002 -49.279461 
L 125.920361 -49.558396 
L 125.083721 -50.059528 
L 124.24708 -50.73599 
L 123.410439 -51.542447 
L 122.573799 -52.435563 
L 121.737158 -53.374202 
L 120.900517 -54.31944 
L 120.063877 -55.234506 
L 119.227236 -56.084741 
L 118.390595 -56.837665 
L 117.553955 -57.46321 
L 116.717314 -57.934129 
L 115.880673 -58.226577 
L 115.044033 -58.320816 
L 114.207392 -58.201958 
L 113.370751 -57.860679 
L 112.534111 -57.293785 
L 111.69747 -56.504576 
L 110.860829 -55.502924 
L 110.024189 -54.30503 
L 109.187548 -52.932867 
L 108.350907 -51.413322 
L 107.514267 -49.777077 
L 106.677626 -48.057327 
L 105.840985 -46.288394 
L 105.004345 -44.504333 
L 104.167704 -42.737619 
L 103.331063 -41.017986 
L 102.494423 -39.37148 
L 101.657782 -37.819756 
L 100.821141 -36.379656 
L 99.9845 -35.063057 
L 99.14786 -33.876974 
L 98.311219 -32.823881 
L 97.474578 -31.902216 
L 96.637938 -31.107008 
L 95.801297 -30.430584 
L 94.964656 -29.863288 
L 94.128016 -29.394196 
L 93.291375 -29.011749 
L 92.454734 -28.704323 
L 91.618094 -28.460676 
L 90.781453 -28.270295 
L 89.944812 -28.123636 
L 89.108172 -28.012254 
L 88.271531 -27.928864 
L 87.43489 -27.867318 
L 86.59825 -27.82254 
z
" style="stroke: #ff7f0e"/>
    </defs>
    <g clip-path="url(#p37d2f159cc)">
     <use xlink:href="#mf645f77160" x="0" y="252" style="fill: #ff7f0e; fill-opacity: 0.25; stroke: #ff7f0e"/>
    </g>
   </g>
   <g id="PolyCollection_3">
    <defs>
     <path id="m660a617b57" d="M 57.681818 -27.859642 
L 57.681818 -27.72 
L 58.272795 -27.72 
L 58.863773 -27.72 
L 59.45475 -27.72 
L 60.045727 -27.72 
L 60.636705 -27.72 
L 61.227682 -27.72 
L 61.818659 -27.72 
L 62.409636 -27.72 
L 63.000614 -27.72 
L 63.591591 -27.72 
L 64.182568 -27.72 
L 64.773545 -27.72 
L 65.364523 -27.72 
L 65.9555 -27.72 
L 66.546477 -27.72 
L 67.137454 -27.72 
L 67.728432 -27.72 
L 68.319409 -27.72 
L 68.910386 -27.72 
L 69.501364 -27.72 
L 70.092341 -27.72 
L 70.683318 -27.72 
L 71.274295 -27.72 
L 71.865273 -27.72 
L 72.45625 -27.72 
L 73.047227 -27.72 
L 73.638204 -27.72 
L 74.229182 -27.72 
L 74.820159 -27.72 
L 75.411136 -27.72 
L 76.002113 -27.72 
L 76.593091 -27.72 
L 77.184068 -27.72 
L 77.775045 -27.72 
L 78.366023 -27.72 
L 78.957 -27.72 
L 79.547977 -27.72 
L 80.138954 -27.72 
L 80.729932 -27.72 
L 81.320909 -27.72 
L 81.911886 -27.72 
L 82.502863 -27.72 
L 83.093841 -27.72 
L 83.684818 -27.72 
L 84.275795 -27.72 
L 84.866772 -27.72 
L 85.45775 -27.72 
L 86.048727 -27.72 
L 86.639704 -27.72 
L 87.230682 -27.72 
L 87.821659 -27.72 
L 88.412636 -27.72 
L 89.003613 -27.72 
L 89.594591 -27.72 
L 90.185568 -27.72 
L 90.776545 -27.72 
L 91.367522 -27.72 
L 91.9585 -27.72 
L 92.549477 -27.72 
L 93.140454 -27.72 
L 93.731431 -27.72 
L 94.322409 -27.72 
L 94.913386 -27.72 
L 95.504363 -27.72 
L 96.095341 -27.72 
L 96.686318 -27.72 
L 97.277295 -27.72 
L 97.868272 -27.72 
L 98.45925 -27.72 
L 99.050227 -27.72 
L 99.641204 -27.72 
L 100.232181 -27.72 
L 100.823159 -27.72 
L 101.414136 -27.72 
L 102.005113 -27.72 
L 102.59609 -27.72 
L 103.187068 -27.72 
L 103.778045 -27.72 
L 104.369022 -27.72 
L 104.96 -27.72 
L 105.550977 -27.72 
L 106.141954 -27.72 
L 106.732931 -27.72 
L 107.323909 -27.72 
L 107.914886 -27.72 
L 108.505863 -27.72 
L 109.09684 -27.72 
L 109.687818 -27.72 
L 110.278795 -27.72 
L 110.869772 -27.72 
L 111.460749 -27.72 
L 112.051727 -27.72 
L 112.642704 -27.72 
L 113.233681 -27.72 
L 113.824659 -27.72 
L 114.415636 -27.72 
L 115.006613 -27.72 
L 115.59759 -27.72 
L 116.188568 -27.72 
L 116.779545 -27.72 
L 117.370522 -27.72 
L 117.961499 -27.72 
L 118.552477 -27.72 
L 119.143454 -27.72 
L 119.734431 -27.72 
L 120.325408 -27.72 
L 120.916386 -27.72 
L 121.507363 -27.72 
L 122.09834 -27.72 
L 122.689318 -27.72 
L 123.280295 -27.72 
L 123.871272 -27.72 
L 124.462249 -27.72 
L 125.053227 -27.72 
L 125.644204 -27.72 
L 126.235181 -27.72 
L 126.826158 -27.72 
L 127.417136 -27.72 
L 128.008113 -27.72 
L 128.59909 -27.72 
L 129.190067 -27.72 
L 129.781045 -27.72 
L 130.372022 -27.72 
L 130.962999 -27.72 
L 131.553977 -27.72 
L 132.144954 -27.72 
L 132.735931 -27.72 
L 133.326908 -27.72 
L 133.917886 -27.72 
L 134.508863 -27.72 
L 135.09984 -27.72 
L 135.690817 -27.72 
L 136.281795 -27.72 
L 136.872772 -27.72 
L 137.463749 -27.72 
L 138.054726 -27.72 
L 138.645704 -27.72 
L 139.236681 -27.72 
L 139.827658 -27.72 
L 140.418636 -27.72 
L 141.009613 -27.72 
L 141.60059 -27.72 
L 142.191567 -27.72 
L 142.782545 -27.72 
L 143.373522 -27.72 
L 143.964499 -27.72 
L 144.555476 -27.72 
L 145.146454 -27.72 
L 145.737431 -27.72 
L 146.328408 -27.72 
L 146.919385 -27.72 
L 147.510363 -27.72 
L 148.10134 -27.72 
L 148.692317 -27.72 
L 149.283295 -27.72 
L 149.874272 -27.72 
L 150.465249 -27.72 
L 151.056226 -27.72 
L 151.647204 -27.72 
L 152.238181 -27.72 
L 152.829158 -27.72 
L 153.420135 -27.72 
L 154.011113 -27.72 
L 154.60209 -27.72 
L 155.193067 -27.72 
L 155.784044 -27.72 
L 156.375022 -27.72 
L 156.965999 -27.72 
L 157.556976 -27.72 
L 158.147954 -27.72 
L 158.738931 -27.72 
L 159.329908 -27.72 
L 159.920885 -27.72 
L 160.511863 -27.72 
L 161.10284 -27.72 
L 161.693817 -27.72 
L 162.284794 -27.72 
L 162.875772 -27.72 
L 163.466749 -27.72 
L 164.057726 -27.72 
L 164.648703 -27.72 
L 165.239681 -27.72 
L 165.830658 -27.72 
L 166.421635 -27.72 
L 167.012613 -27.72 
L 167.60359 -27.72 
L 168.194567 -27.72 
L 168.785544 -27.72 
L 169.376522 -27.72 
L 169.967499 -27.72 
L 170.558476 -27.72 
L 171.149453 -27.72 
L 171.740431 -27.72 
L 172.331408 -27.72 
L 172.922385 -27.72 
L 173.513362 -27.72 
L 174.10434 -27.72 
L 174.695317 -27.72 
L 175.286294 -27.72 
L 175.286294 -27.858125 
L 175.286294 -27.858125 
L 174.695317 -27.919369 
L 174.10434 -28.003566 
L 173.513362 -28.117469 
L 172.922385 -28.269095 
L 172.331408 -28.467722 
L 171.740431 -28.723784 
L 171.149453 -29.04866 
L 170.558476 -29.454347 
L 169.967499 -29.953014 
L 169.376522 -30.556438 
L 168.785544 -31.275377 
L 168.194567 -32.118879 
L 167.60359 -33.093608 
L 167.012613 -34.203209 
L 166.421635 -35.447781 
L 165.830658 -36.823472 
L 165.239681 -38.32224 
L 164.648703 -39.931759 
L 164.057726 -41.635471 
L 163.466749 -43.412761 
L 162.875772 -45.239207 
L 162.284794 -47.086907 
L 161.693817 -48.924872 
L 161.10284 -50.719493 
L 160.511863 -52.435154 
L 159.920885 -54.03504 
L 159.329908 -55.482203 
L 158.738931 -56.740969 
L 158.147954 -57.778666 
L 157.556976 -58.567679 
L 156.965999 -59.087702 
L 156.375022 -59.328029 
L 155.784044 -59.289678 
L 155.193067 -58.987076 
L 154.60209 -58.449072 
L 154.011113 -57.719068 
L 153.420135 -56.854133 
L 152.829158 -55.923073 
L 152.238181 -55.003523 
L 151.647204 -54.17827 
L 151.056226 -53.531061 
L 150.465249 -53.142247 
L 149.874272 -53.084597 
L 149.283295 -53.419601 
L 148.692317 -54.194514 
L 148.10134 -55.440285 
L 147.510363 -57.170413 
L 146.919385 -59.380675 
L 146.328408 -62.049572 
L 145.737431 -65.139303 
L 145.146454 -68.597077 
L 144.555476 -72.356588 
L 143.964499 -76.339584 
L 143.373522 -80.457505 
L 142.782545 -84.613311 
L 142.191567 -88.703632 
L 141.60059 -92.621432 
L 141.009613 -96.259348 
L 140.418636 -99.513766 
L 139.827658 -102.289583 
L 139.236681 -104.505458 
L 138.645704 -106.09918 
L 138.054726 -107.032688 
L 137.463749 -107.296218 
L 136.872772 -106.911035 
L 136.281795 -105.930361 
L 135.690817 -104.438221 
L 135.09984 -102.546185 
L 134.508863 -100.388187 
L 133.917886 -98.113831 
L 133.326908 -95.880746 
L 132.735931 -93.846648 
L 132.144954 -92.161755 
L 131.553977 -90.96213 
L 130.962999 -90.364381 
L 130.372022 -90.461956 
L 129.781045 -91.323064 
L 129.190067 -92.990078 
L 128.59909 -95.480137 
L 128.008113 -98.78659 
L 127.417136 -102.880902 
L 126.826158 -107.714719 
L 126.235181 -113.221879 
L 125.644204 -119.32027 
L 125.053227 -125.913588 
L 124.462249 -132.893126 
L 123.871272 -140.139768 
L 123.280295 -147.526365 
L 122.689318 -154.920603 
L 122.09834 -162.188361 
L 121.507363 -169.197439 
L 120.916386 -175.821445 
L 120.325408 -181.943528 
L 119.734431 -187.459693 
L 119.143454 -192.281416 
L 118.552477 -196.337452 
L 117.961499 -199.574792 
L 117.370522 -201.958918 
L 116.779545 -203.473528 
L 116.188568 -204.12 
L 115.59759 -203.916786 
L 115.006613 -202.898863 
L 114.415636 -201.117238 
L 113.824659 -198.638384 
L 113.233681 -195.543371 
L 112.642704 -191.926446 
L 112.051727 -187.892798 
L 111.460749 -183.555396 
L 110.869772 -179.03087 
L 110.278795 -174.434603 
L 109.687818 -169.875361 
L 109.09684 -165.449867 
L 108.505863 -161.237842 
L 107.914886 -157.297978 
L 107.323909 -153.665293 
L 106.732931 -150.350168 
L 106.141954 -147.339228 
L 105.550977 -144.598058 
L 104.96 -142.07557 
L 104.369022 -139.709671 
L 103.778045 -137.43377 
L 103.187068 -135.183551 
L 102.59609 -132.903406 
L 102.005113 -130.551945 
L 101.414136 -128.106048 
L 100.823159 -125.563081 
L 100.232181 -122.941043 
L 99.641204 -120.27662 
L 99.050227 -117.621332 
L 98.45925 -115.036137 
L 97.868272 -112.585038 
L 97.277295 -110.328297 
L 96.686318 -108.315949 
L 96.095341 -106.582244 
L 95.504363 -105.141576 
L 94.913386 -103.986297 
L 94.322409 -103.08666 
L 93.731431 -102.392909 
L 93.140454 -101.839336 
L 92.549477 -101.34995 
L 91.9585 -100.845228 
L 91.367522 -100.249312 
L 90.776545 -99.496962 
L 90.185568 -98.539599 
L 89.594591 -97.349827 
L 89.003613 -95.924008 
L 88.412636 -94.28259 
L 87.821659 -92.468193 
L 87.230682 -90.541584 
L 86.639704 -88.575984 
L 86.048727 -86.650213 
L 85.45775 -84.841375 
L 84.866772 -83.217742 
L 84.275795 -81.832526 
L 83.684818 -80.719089 
L 83.093841 -79.887987 
L 82.502863 -79.326094 
L 81.911886 -78.997804 
L 81.320909 -78.848143 
L 80.729932 -78.807435 
L 80.138954 -78.797049 
L 79.547977 -78.735655 
L 78.957 -78.545403 
L 78.366023 -78.157488 
L 77.775045 -77.51664 
L 77.184068 -76.58421 
L 76.593091 -75.33972 
L 76.002113 -73.780857 
L 75.411136 -71.922101 
L 74.820159 -69.792253 
L 74.229182 -67.431246 
L 73.638204 -64.886607 
L 73.047227 -62.209948 
L 72.45625 -59.453778 
L 71.865273 -56.668842 
L 71.274295 -53.9021 
L 70.683318 -51.195348 
L 70.092341 -48.584435 
L 69.501364 -46.09895 
L 68.910386 -43.762263 
L 68.319409 -41.591799 
L 67.728432 -39.599427 
L 67.137454 -37.791925 
L 66.546477 -36.171456 
L 65.9555 -34.736067 
L 65.364523 -33.480193 
L 64.773545 -32.395202 
L 64.182568 -31.469958 
L 63.591591 -30.69142 
L 63.000614 -30.045253 
L 62.409636 -29.516437 
L 61.818659 -29.089828 
L 61.227682 -28.75067 
L 60.636705 -28.485017 
L 60.045727 -28.280053 
L 59.45475 -28.124307 
L 58.863773 -28.007769 
L 58.272795 -27.921913 
L 57.681818 -27.859642 
z
" style="stroke: #1f77b4"/>
    </defs>
    <g clip-path="url(#p37d2f159cc)">
     <use xlink:href="#m660a617b57" x="0" y="252" style="fill: #1f77b4; fill-opacity: 0.25; stroke: #1f77b4"/>
    </g>
   </g>
   <g id="matplotlib.axis_1">
    <g id="xtick_1">
     <g id="line2d_1">
      <defs>
       <path id="m181afeaccc" d="M 0 0 
L 0 3.5 
" style="stroke: #000000; stroke-width: 0.8"/>
      </defs>
      <g>
       <use xlink:href="#m181afeaccc" x="54.230792" y="224.28" style="stroke: #000000; stroke-width: 0.8"/>
      </g>
     </g>
     <g id="text_1">
      <!-- 4 -->
      <g transform="translate(51.049542 238.878438) scale(0.1 -0.1)">
       <defs>
        <path id="DejaVuSans-34" d="M 2419 4116 
L 825 1625 
L 2419 1625 
L 2419 4116 
z
M 2253 4666 
L 3047 4666 
L 3047 1625 
L 3713 1625 
L 3713 1100 
L 3047 1100 
L 3047 0 
L 2419 0 
L 2419 1100 
L 313 1100 
L 313 1709 
L 2253 4666 
z
" transform="scale(0.015625)"/>
       </defs>
       <use xlink:href="#DejaVuSans-34"/>
      </g>
     </g>
    </g>
    <g id="xtick_2">
     <g id="line2d_2">
      <g>
       <use xlink:href="#m181afeaccc" x="113.519615" y="224.28" style="stroke: #000000; stroke-width: 0.8"/>
      </g>
     </g>
     <g id="text_2">
      <!-- 5 -->
      <g transform="translate(110.338365 238.878438) scale(0.1 -0.1)">
       <defs>
        <path id="DejaVuSans-35" d="M 691 4666 
L 3169 4666 
L 3169 4134 
L 1269 4134 
L 1269 2991 
Q 1406 3038 1543 3061 
Q 1681 3084 1819 3084 
Q 2600 3084 3056 2656 
Q 3513 2228 3513 1497 
Q 3513 744 3044 326 
Q 2575 -91 1722 -91 
Q 1428 -91 1123 -41 
Q 819 9 494 109 
L 494 744 
Q 775 591 1075 516 
Q 1375 441 1709 441 
Q 2250 441 2565 725 
Q 2881 1009 2881 1497 
Q 2881 1984 2565 2268 
Q 2250 2553 1709 2553 
Q 1456 2553 1204 2497 
Q 953 2441 691 2322 
L 691 4666 
z
" transform="scale(0.015625)"/>
       </defs>
       <use xlink:href="#DejaVuSans-35"/>
      </g>
     </g>
    </g>
    <g id="xtick_3">
     <g id="line2d_3">
      <g>
       <use xlink:href="#m181afeaccc" x="172.808438" y="224.28" style="stroke: #000000; stroke-width: 0.8"/>
      </g>
     </g>
     <g id="text_3">
      <!-- 6 -->
      <g transform="translate(169.627188 238.878438) scale(0.1 -0.1)">
       <defs>
        <path id="DejaVuSans-36" d="M 2113 2584 
Q 1688 2584 1439 2293 
Q 1191 2003 1191 1497 
Q 1191 994 1439 701 
Q 1688 409 2113 409 
Q 2538 409 2786 701 
Q 3034 994 3034 1497 
Q 3034 2003 2786 2293 
Q 2538 2584 2113 2584 
z
M 3366 4563 
L 3366 3988 
Q 3128 4100 2886 4159 
Q 2644 4219 2406 4219 
Q 1781 4219 1451 3797 
Q 1122 3375 1075 2522 
Q 1259 2794 1537 2939 
Q 1816 3084 2150 3084 
Q 2853 3084 3261 2657 
Q 3669 2231 3669 1497 
Q 3669 778 3244 343 
Q 2819 -91 2113 -91 
Q 1303 -91 875 529 
Q 447 1150 447 2328 
Q 447 3434 972 4092 
Q 1497 4750 2381 4750 
Q 2619 4750 2861 4703 
Q 3103 4656 3366 4563 
z
" transform="scale(0.015625)"/>
       </defs>
       <use xlink:href="#DejaVuSans-36"/>
      </g>
     </g>
    </g>
    <g id="xtick_4">
     <g id="line2d_4">
      <g>
       <use xlink:href="#m181afeaccc" x="232.097261" y="224.28" style="stroke: #000000; stroke-width: 0.8"/>
      </g>
     </g>
     <g id="text_4">
      <!-- 7 -->
      <g transform="translate(228.916011 238.878438) scale(0.1 -0.1)">
       <defs>
        <path id="DejaVuSans-37" d="M 525 4666 
L 3525 4666 
L 3525 4397 
L 1831 0 
L 1172 0 
L 2766 4134 
L 525 4134 
L 525 4666 
z
" transform="scale(0.015625)"/>
       </defs>
       <use xlink:href="#DejaVuSans-37"/>
      </g>
     </g>
    </g>
    <g id="xtick_5">
     <g id="line2d_5">
      <g>
       <use xlink:href="#m181afeaccc" x="291.386084" y="224.28" style="stroke: #000000; stroke-width: 0.8"/>
      </g>
     </g>
     <g id="text_5">
      <!-- 8 -->
      <g transform="translate(288.204834 238.878438) scale(0.1 -0.1)">
       <defs>
        <path id="DejaVuSans-38" d="M 2034 2216 
Q 1584 2216 1326 1975 
Q 1069 1734 1069 1313 
Q 1069 891 1326 650 
Q 1584 409 2034 409 
Q 2484 409 2743 651 
Q 3003 894 3003 1313 
Q 3003 1734 2745 1975 
Q 2488 2216 2034 2216 
z
M 1403 2484 
Q 997 2584 770 2862 
Q 544 3141 544 3541 
Q 544 4100 942 4425 
Q 1341 4750 2034 4750 
Q 2731 4750 3128 4425 
Q 3525 4100 3525 3541 
Q 3525 3141 3298 2862 
Q 3072 2584 2669 2484 
Q 3125 2378 3379 2068 
Q 3634 1759 3634 1313 
Q 3634 634 3220 271 
Q 2806 -91 2034 -91 
Q 1263 -91 848 271 
Q 434 634 434 1313 
Q 434 1759 690 2068 
Q 947 2378 1403 2484 
z
M 1172 3481 
Q 1172 3119 1398 2916 
Q 1625 2713 2034 2713 
Q 2441 2713 2670 2916 
Q 2900 3119 2900 3481 
Q 2900 3844 2670 4047 
Q 2441 4250 2034 4250 
Q 1625 4250 1398 4047 
Q 1172 3844 1172 3481 
z
" transform="scale(0.015625)"/>
       </defs>
       <use xlink:href="#DejaVuSans-38"/>
      </g>
     </g>
    </g>
    <g id="text_6">
     <!-- sepal_length -->
     <g transform="translate(152.753906 252.556563) scale(0.1 -0.1)">
      <defs>
       <path id="DejaVuSans-73" d="M 2834 3397 
L 2834 2853 
Q 2591 2978 2328 3040 
Q 2066 3103 1784 3103 
Q 1356 3103 1142 2972 
Q 928 2841 928 2578 
Q 928 2378 1081 2264 
Q 1234 2150 1697 2047 
L 1894 2003 
Q 2506 1872 2764 1633 
Q 3022 1394 3022 966 
Q 3022 478 2636 193 
Q 2250 -91 1575 -91 
Q 1294 -91 989 -36 
Q 684 19 347 128 
L 347 722 
Q 666 556 975 473 
Q 1284 391 1588 391 
Q 1994 391 2212 530 
Q 2431 669 2431 922 
Q 2431 1156 2273 1281 
Q 2116 1406 1581 1522 
L 1381 1569 
Q 847 1681 609 1914 
Q 372 2147 372 2553 
Q 372 3047 722 3315 
Q 1072 3584 1716 3584 
Q 2034 3584 2315 3537 
Q 2597 3491 2834 3397 
z
" transform="scale(0.015625)"/>
       <path id="DejaVuSans-65" d="M 3597 1894 
L 3597 1613 
L 953 1613 
Q 991 1019 1311 708 
Q 1631 397 2203 397 
Q 2534 397 2845 478 
Q 3156 559 3463 722 
L 3463 178 
Q 3153 47 2828 -22 
Q 2503 -91 2169 -91 
Q 1331 -91 842 396 
Q 353 884 353 1716 
Q 353 2575 817 3079 
Q 1281 3584 2069 3584 
Q 2775 3584 3186 3129 
Q 3597 2675 3597 1894 
z
M 3022 2063 
Q 3016 2534 2758 2815 
Q 2500 3097 2075 3097 
Q 1594 3097 1305 2825 
Q 1016 2553 972 2059 
L 3022 2063 
z
" transform="scale(0.015625)"/>
       <path id="DejaVuSans-70" d="M 1159 525 
L 1159 -1331 
L 581 -1331 
L 581 3500 
L 1159 3500 
L 1159 2969 
Q 1341 3281 1617 3432 
Q 1894 3584 2278 3584 
Q 2916 3584 3314 3078 
Q 3713 2572 3713 1747 
Q 3713 922 3314 415 
Q 2916 -91 2278 -91 
Q 1894 -91 1617 61 
Q 1341 213 1159 525 
z
M 3116 1747 
Q 3116 2381 2855 2742 
Q 2594 3103 2138 3103 
Q 1681 3103 1420 2742 
Q 1159 2381 1159 1747 
Q 1159 1113 1420 752 
Q 1681 391 2138 391 
Q 2594 391 2855 752 
Q 3116 1113 3116 1747 
z
" transform="scale(0.015625)"/>
       <path id="DejaVuSans-61" d="M 2194 1759 
Q 1497 1759 1228 1600 
Q 959 1441 959 1056 
Q 959 750 1161 570 
Q 1363 391 1709 391 
Q 2188 391 2477 730 
Q 2766 1069 2766 1631 
L 2766 1759 
L 2194 1759 
z
M 3341 1997 
L 3341 0 
L 2766 0 
L 2766 531 
Q 2569 213 2275 61 
Q 1981 -91 1556 -91 
Q 1019 -91 701 211 
Q 384 513 384 1019 
Q 384 1609 779 1909 
Q 1175 2209 1959 2209 
L 2766 2209 
L 2766 2266 
Q 2766 2663 2505 2880 
Q 2244 3097 1772 3097 
Q 1472 3097 1187 3025 
Q 903 2953 641 2809 
L 641 3341 
Q 956 3463 1253 3523 
Q 1550 3584 1831 3584 
Q 2591 3584 2966 3190 
Q 3341 2797 3341 1997 
z
" transform="scale(0.015625)"/>
       <path id="DejaVuSans-6c" d="M 603 4863 
L 1178 4863 
L 1178 0 
L 603 0 
L 603 4863 
z
" transform="scale(0.015625)"/>
       <path id="DejaVuSans-5f" d="M 3263 -1063 
L 3263 -1509 
L -63 -1509 
L -63 -1063 
L 3263 -1063 
z
" transform="scale(0.015625)"/>
       <path id="DejaVuSans-6e" d="M 3513 2113 
L 3513 0 
L 2938 0 
L 2938 2094 
Q 2938 2591 2744 2837 
Q 2550 3084 2163 3084 
Q 1697 3084 1428 2787 
Q 1159 2491 1159 1978 
L 1159 0 
L 581 0 
L 581 3500 
L 1159 3500 
L 1159 2956 
Q 1366 3272 1645 3428 
Q 1925 3584 2291 3584 
Q 2894 3584 3203 3211 
Q 3513 2838 3513 2113 
z
" transform="scale(0.015625)"/>
       <path id="DejaVuSans-67" d="M 2906 1791 
Q 2906 2416 2648 2759 
Q 2391 3103 1925 3103 
Q 1463 3103 1205 2759 
Q 947 2416 947 1791 
Q 947 1169 1205 825 
Q 1463 481 1925 481 
Q 2391 481 2648 825 
Q 2906 1169 2906 1791 
z
M 3481 434 
Q 3481 -459 3084 -895 
Q 2688 -1331 1869 -1331 
Q 1566 -1331 1297 -1286 
Q 1028 -1241 775 -1147 
L 775 -588 
Q 1028 -725 1275 -790 
Q 1522 -856 1778 -856 
Q 2344 -856 2625 -561 
Q 2906 -266 2906 331 
L 2906 616 
Q 2728 306 2450 153 
Q 2172 0 1784 0 
Q 1141 0 747 490 
Q 353 981 353 1791 
Q 353 2603 747 3093 
Q 1141 3584 1784 3584 
Q 2172 3584 2450 3431 
Q 2728 3278 2906 2969 
L 2906 3500 
L 3481 3500 
L 3481 434 
z
" transform="scale(0.015625)"/>
       <path id="DejaVuSans-74" d="M 1172 4494 
L 1172 3500 
L 2356 3500 
L 2356 3053 
L 1172 3053 
L 1172 1153 
Q 1172 725 1289 603 
Q 1406 481 1766 481 
L 2356 481 
L 2356 0 
L 1766 0 
Q 1100 0 847 248 
Q 594 497 594 1153 
L 594 3053 
L 172 3053 
L 172 3500 
L 594 3500 
L 594 4494 
L 1172 4494 
z
" transform="scale(0.015625)"/>
       <path id="DejaVuSans-68" d="M 3513 2113 
L 3513 0 
L 2938 0 
L 2938 2094 
Q 2938 2591 2744 2837 
Q 2550 3084 2163 3084 
Q 1697 3084 1428 2787 
Q 1159 2491 1159 1978 
L 1159 0 
L 581 0 
L 581 4863 
L 1159 4863 
L 1159 2956 
Q 1366 3272 1645 3428 
Q 1925 3584 2291 3584 
Q 2894 3584 3203 3211 
Q 3513 2838 3513 2113 
z
" transform="scale(0.015625)"/>
      </defs>
      <use xlink:href="#DejaVuSans-73"/>
      <use xlink:href="#DejaVuSans-65" x="52.099609"/>
      <use xlink:href="#DejaVuSans-70" x="113.623047"/>
      <use xlink:href="#DejaVuSans-61" x="177.099609"/>
      <use xlink:href="#DejaVuSans-6c" x="238.378906"/>
      <use xlink:href="#DejaVuSans-5f" x="266.162109"/>
      <use xlink:href="#DejaVuSans-6c" x="316.162109"/>
      <use xlink:href="#DejaVuSans-65" x="343.945312"/>
      <use xlink:href="#DejaVuSans-6e" x="405.46875"/>
      <use xlink:href="#DejaVuSans-67" x="468.847656"/>
      <use xlink:href="#DejaVuSans-74" x="532.324219"/>
      <use xlink:href="#DejaVuSans-68" x="571.533203"/>
     </g>
    </g>
   </g>
   <g id="matplotlib.axis_2">
    <g id="ytick_1">
     <g id="line2d_6">
      <defs>
       <path id="me8be5384c8" d="M 0 0 
L -3.5 0 
" style="stroke: #000000; stroke-width: 0.8"/>
      </defs>
      <g>
       <use xlink:href="#me8be5384c8" x="45" y="224.28" style="stroke: #000000; stroke-width: 0.8"/>
      </g>
     </g>
     <g id="text_7">
      <!-- 0.0 -->
      <g transform="translate(22.096875 228.079219) scale(0.1 -0.1)">
       <defs>
        <path id="DejaVuSans-30" d="M 2034 4250 
Q 1547 4250 1301 3770 
Q 1056 3291 1056 2328 
Q 1056 1369 1301 889 
Q 1547 409 2034 409 
Q 2525 409 2770 889 
Q 3016 1369 3016 2328 
Q 3016 3291 2770 3770 
Q 2525 4250 2034 4250 
z
M 2034 4750 
Q 2819 4750 3233 4129 
Q 3647 3509 3647 2328 
Q 3647 1150 3233 529 
Q 2819 -91 2034 -91 
Q 1250 -91 836 529 
Q 422 1150 422 2328 
Q 422 3509 836 4129 
Q 1250 4750 2034 4750 
z
" transform="scale(0.015625)"/>
        <path id="DejaVuSans-2e" d="M 684 794 
L 1344 794 
L 1344 0 
L 684 0 
L 684 794 
z
" transform="scale(0.015625)"/>
       </defs>
       <use xlink:href="#DejaVuSans-30"/>
       <use xlink:href="#DejaVuSans-2e" x="63.623047"/>
       <use xlink:href="#DejaVuSans-30" x="95.410156"/>
      </g>
     </g>
    </g>
    <g id="ytick_2">
     <g id="line2d_7">
      <g>
       <use xlink:href="#me8be5384c8" x="45" y="187.42633" style="stroke: #000000; stroke-width: 0.8"/>
      </g>
     </g>
     <g id="text_8">
      <!-- 0.1 -->
      <g transform="translate(22.096875 191.225549) scale(0.1 -0.1)">
       <defs>
        <path id="DejaVuSans-31" d="M 794 531 
L 1825 531 
L 1825 4091 
L 703 3866 
L 703 4441 
L 1819 4666 
L 2450 4666 
L 2450 531 
L 3481 531 
L 3481 0 
L 794 0 
L 794 531 
z
" transform="scale(0.015625)"/>
       </defs>
       <use xlink:href="#DejaVuSans-30"/>
       <use xlink:href="#DejaVuSans-2e" x="63.623047"/>
       <use xlink:href="#DejaVuSans-31" x="95.410156"/>
      </g>
     </g>
    </g>
    <g id="ytick_3">
     <g id="line2d_8">
      <g>
       <use xlink:href="#me8be5384c8" x="45" y="150.57266" style="stroke: #000000; stroke-width: 0.8"/>
      </g>
     </g>
     <g id="text_9">
      <!-- 0.2 -->
      <g transform="translate(22.096875 154.371879) scale(0.1 -0.1)">
       <defs>
        <path id="DejaVuSans-32" d="M 1228 531 
L 3431 531 
L 3431 0 
L 469 0 
L 469 531 
Q 828 903 1448 1529 
Q 2069 2156 2228 2338 
Q 2531 2678 2651 2914 
Q 2772 3150 2772 3378 
Q 2772 3750 2511 3984 
Q 2250 4219 1831 4219 
Q 1534 4219 1204 4116 
Q 875 4013 500 3803 
L 500 4441 
Q 881 4594 1212 4672 
Q 1544 4750 1819 4750 
Q 2544 4750 2975 4387 
Q 3406 4025 3406 3419 
Q 3406 3131 3298 2873 
Q 3191 2616 2906 2266 
Q 2828 2175 2409 1742 
Q 1991 1309 1228 531 
z
" transform="scale(0.015625)"/>
       </defs>
       <use xlink:href="#DejaVuSans-30"/>
       <use xlink:href="#DejaVuSans-2e" x="63.623047"/>
       <use xlink:href="#DejaVuSans-32" x="95.410156"/>
      </g>
     </g>
    </g>
    <g id="ytick_4">
     <g id="line2d_9">
      <g>
       <use xlink:href="#me8be5384c8" x="45" y="113.71899" style="stroke: #000000; stroke-width: 0.8"/>
      </g>
     </g>
     <g id="text_10">
      <!-- 0.3 -->
      <g transform="translate(22.096875 117.518209) scale(0.1 -0.1)">
       <defs>
        <path id="DejaVuSans-33" d="M 2597 2516 
Q 3050 2419 3304 2112 
Q 3559 1806 3559 1356 
Q 3559 666 3084 287 
Q 2609 -91 1734 -91 
Q 1441 -91 1130 -33 
Q 819 25 488 141 
L 488 750 
Q 750 597 1062 519 
Q 1375 441 1716 441 
Q 2309 441 2620 675 
Q 2931 909 2931 1356 
Q 2931 1769 2642 2001 
Q 2353 2234 1838 2234 
L 1294 2234 
L 1294 2753 
L 1863 2753 
Q 2328 2753 2575 2939 
Q 2822 3125 2822 3475 
Q 2822 3834 2567 4026 
Q 2313 4219 1838 4219 
Q 1578 4219 1281 4162 
Q 984 4106 628 3988 
L 628 4550 
Q 988 4650 1302 4700 
Q 1616 4750 1894 4750 
Q 2613 4750 3031 4423 
Q 3450 4097 3450 3541 
Q 3450 3153 3228 2886 
Q 3006 2619 2597 2516 
z
" transform="scale(0.015625)"/>
       </defs>
       <use xlink:href="#DejaVuSans-30"/>
       <use xlink:href="#DejaVuSans-2e" x="63.623047"/>
       <use xlink:href="#DejaVuSans-33" x="95.410156"/>
      </g>
     </g>
    </g>
    <g id="ytick_5">
     <g id="line2d_10">
      <g>
       <use xlink:href="#me8be5384c8" x="45" y="76.86532" style="stroke: #000000; stroke-width: 0.8"/>
      </g>
     </g>
     <g id="text_11">
      <!-- 0.4 -->
      <g transform="translate(22.096875 80.664539) scale(0.1 -0.1)">
       <use xlink:href="#DejaVuSans-30"/>
       <use xlink:href="#DejaVuSans-2e" x="63.623047"/>
       <use xlink:href="#DejaVuSans-34" x="95.410156"/>
      </g>
     </g>
    </g>
    <g id="ytick_6">
     <g id="line2d_11">
      <g>
       <use xlink:href="#me8be5384c8" x="45" y="40.01165" style="stroke: #000000; stroke-width: 0.8"/>
      </g>
     </g>
     <g id="text_12">
      <!-- 0.5 -->
      <g transform="translate(22.096875 43.810869) scale(0.1 -0.1)">
       <use xlink:href="#DejaVuSans-30"/>
       <use xlink:href="#DejaVuSans-2e" x="63.623047"/>
       <use xlink:href="#DejaVuSans-35" x="95.410156"/>
      </g>
     </g>
    </g>
    <g id="text_13">
     <!-- Density -->
     <g transform="translate(16.017187 146.268594) rotate(-90) scale(0.1 -0.1)">
      <defs>
       <path id="DejaVuSans-44" d="M 1259 4147 
L 1259 519 
L 2022 519 
Q 2988 519 3436 956 
Q 3884 1394 3884 2338 
Q 3884 3275 3436 3711 
Q 2988 4147 2022 4147 
L 1259 4147 
z
M 628 4666 
L 1925 4666 
Q 3281 4666 3915 4102 
Q 4550 3538 4550 2338 
Q 4550 1131 3912 565 
Q 3275 0 1925 0 
L 628 0 
L 628 4666 
z
" transform="scale(0.015625)"/>
       <path id="DejaVuSans-69" d="M 603 3500 
L 1178 3500 
L 1178 0 
L 603 0 
L 603 3500 
z
M 603 4863 
L 1178 4863 
L 1178 4134 
L 603 4134 
L 603 4863 
z
" transform="scale(0.015625)"/>
       <path id="DejaVuSans-79" d="M 2059 -325 
Q 1816 -950 1584 -1140 
Q 1353 -1331 966 -1331 
L 506 -1331 
L 506 -850 
L 844 -850 
Q 1081 -850 1212 -737 
Q 1344 -625 1503 -206 
L 1606 56 
L 191 3500 
L 800 3500 
L 1894 763 
L 2988 3500 
L 3597 3500 
L 2059 -325 
z
" transform="scale(0.015625)"/>
      </defs>
      <use xlink:href="#DejaVuSans-44"/>
      <use xlink:href="#DejaVuSans-65" x="77.001953"/>
      <use xlink:href="#DejaVuSans-6e" x="138.525391"/>
      <use xlink:href="#DejaVuSans-73" x="201.904297"/>
      <use xlink:href="#DejaVuSans-69" x="254.003906"/>
      <use xlink:href="#DejaVuSans-74" x="281.787109"/>
      <use xlink:href="#DejaVuSans-79" x="320.996094"/>
     </g>
    </g>
   </g>
   <g id="LineCollection_1">
    <path d="M 119.448497 224.28 
L 119.448497 219.429 
" clip-path="url(#p37d2f159cc)" style="fill: none; stroke: #1f77b4"/>
    <path d="M 107.590733 224.28 
L 107.590733 219.429 
" clip-path="url(#p37d2f159cc)" style="fill: none; stroke: #1f77b4"/>
    <path d="M 95.732968 224.28 
L 95.732968 219.429 
" clip-path="url(#p37d2f159cc)" style="fill: none; stroke: #1f77b4"/>
    <path d="M 89.804086 224.28 
L 89.804086 219.429 
" clip-path="url(#p37d2f159cc)" style="fill: none; stroke: #1f77b4"/>
    <path d="M 113.519615 224.28 
L 113.519615 219.429 
" clip-path="url(#p37d2f159cc)" style="fill: none; stroke: #1f77b4"/>
    <path d="M 137.235144 224.28 
L 137.235144 219.429 
" clip-path="url(#p37d2f159cc)" style="fill: none; stroke: #1f77b4"/>
    <path d="M 89.804086 224.28 
L 89.804086 219.429 
" clip-path="url(#p37d2f159cc)" style="fill: none; stroke: #1f77b4"/>
    <path d="M 113.519615 224.28 
L 113.519615 219.429 
" clip-path="url(#p37d2f159cc)" style="fill: none; stroke: #1f77b4"/>
    <path d="M 77.946321 224.28 
L 77.946321 219.429 
" clip-path="url(#p37d2f159cc)" style="fill: none; stroke: #1f77b4"/>
    <path d="M 107.590733 224.28 
L 107.590733 219.429 
" clip-path="url(#p37d2f159cc)" style="fill: none; stroke: #1f77b4"/>
    <path d="M 137.235144 224.28 
L 137.235144 219.429 
" clip-path="url(#p37d2f159cc)" style="fill: none; stroke: #1f77b4"/>
    <path d="M 101.66185 224.28 
L 101.66185 219.429 
" clip-path="url(#p37d2f159cc)" style="fill: none; stroke: #1f77b4"/>
    <path d="M 101.66185 224.28 
L 101.66185 219.429 
" clip-path="url(#p37d2f159cc)" style="fill: none; stroke: #1f77b4"/>
    <path d="M 72.017439 224.28 
L 72.017439 219.429 
" clip-path="url(#p37d2f159cc)" style="fill: none; stroke: #1f77b4"/>
    <path d="M 160.950674 224.28 
L 160.950674 219.429 
" clip-path="url(#p37d2f159cc)" style="fill: none; stroke: #1f77b4"/>
    <path d="M 155.021791 224.28 
L 155.021791 219.429 
" clip-path="url(#p37d2f159cc)" style="fill: none; stroke: #1f77b4"/>
    <path d="M 137.235144 224.28 
L 137.235144 219.429 
" clip-path="url(#p37d2f159cc)" style="fill: none; stroke: #1f77b4"/>
    <path d="M 119.448497 224.28 
L 119.448497 219.429 
" clip-path="url(#p37d2f159cc)" style="fill: none; stroke: #1f77b4"/>
    <path d="M 155.021791 224.28 
L 155.021791 219.429 
" clip-path="url(#p37d2f159cc)" style="fill: none; stroke: #1f77b4"/>
    <path d="M 119.448497 224.28 
L 119.448497 219.429 
" clip-path="url(#p37d2f159cc)" style="fill: none; stroke: #1f77b4"/>
    <path d="M 137.235144 224.28 
L 137.235144 219.429 
" clip-path="url(#p37d2f159cc)" style="fill: none; stroke: #1f77b4"/>
    <path d="M 119.448497 224.28 
L 119.448497 219.429 
" clip-path="url(#p37d2f159cc)" style="fill: none; stroke: #1f77b4"/>
    <path d="M 89.804086 224.28 
L 89.804086 219.429 
" clip-path="url(#p37d2f159cc)" style="fill: none; stroke: #1f77b4"/>
    <path d="M 119.448497 224.28 
L 119.448497 219.429 
" clip-path="url(#p37d2f159cc)" style="fill: none; stroke: #1f77b4"/>
    <path d="M 101.66185 224.28 
L 101.66185 219.429 
" clip-path="url(#p37d2f159cc)" style="fill: none; stroke: #1f77b4"/>
    <path d="M 113.519615 224.28 
L 113.519615 219.429 
" clip-path="url(#p37d2f159cc)" style="fill: none; stroke: #1f77b4"/>
    <path d="M 113.519615 224.28 
L 113.519615 219.429 
" clip-path="url(#p37d2f159cc)" style="fill: none; stroke: #1f77b4"/>
    <path d="M 125.37738 224.28 
L 125.37738 219.429 
" clip-path="url(#p37d2f159cc)" style="fill: none; stroke: #1f77b4"/>
    <path d="M 125.37738 224.28 
L 125.37738 219.429 
" clip-path="url(#p37d2f159cc)" style="fill: none; stroke: #1f77b4"/>
    <path d="M 95.732968 224.28 
L 95.732968 219.429 
" clip-path="url(#p37d2f159cc)" style="fill: none; stroke: #1f77b4"/>
    <path d="M 101.66185 224.28 
L 101.66185 219.429 
" clip-path="url(#p37d2f159cc)" style="fill: none; stroke: #1f77b4"/>
    <path d="M 137.235144 224.28 
L 137.235144 219.429 
" clip-path="url(#p37d2f159cc)" style="fill: none; stroke: #1f77b4"/>
    <path d="M 125.37738 224.28 
L 125.37738 219.429 
" clip-path="url(#p37d2f159cc)" style="fill: none; stroke: #1f77b4"/>
    <path d="M 143.164027 224.28 
L 143.164027 219.429 
" clip-path="url(#p37d2f159cc)" style="fill: none; stroke: #1f77b4"/>
    <path d="M 107.590733 224.28 
L 107.590733 219.429 
" clip-path="url(#p37d2f159cc)" style="fill: none; stroke: #1f77b4"/>
    <path d="M 113.519615 224.28 
L 113.519615 219.429 
" clip-path="url(#p37d2f159cc)" style="fill: none; stroke: #1f77b4"/>
    <path d="M 143.164027 224.28 
L 143.164027 219.429 
" clip-path="url(#p37d2f159cc)" style="fill: none; stroke: #1f77b4"/>
    <path d="M 107.590733 224.28 
L 107.590733 219.429 
" clip-path="url(#p37d2f159cc)" style="fill: none; stroke: #1f77b4"/>
    <path d="M 77.946321 224.28 
L 77.946321 219.429 
" clip-path="url(#p37d2f159cc)" style="fill: none; stroke: #1f77b4"/>
    <path d="M 119.448497 224.28 
L 119.448497 219.429 
" clip-path="url(#p37d2f159cc)" style="fill: none; stroke: #1f77b4"/>
    <path d="M 113.519615 224.28 
L 113.519615 219.429 
" clip-path="url(#p37d2f159cc)" style="fill: none; stroke: #1f77b4"/>
    <path d="M 83.875204 224.28 
L 83.875204 219.429 
" clip-path="url(#p37d2f159cc)" style="fill: none; stroke: #1f77b4"/>
    <path d="M 77.946321 224.28 
L 77.946321 219.429 
" clip-path="url(#p37d2f159cc)" style="fill: none; stroke: #1f77b4"/>
    <path d="M 113.519615 224.28 
L 113.519615 219.429 
" clip-path="url(#p37d2f159cc)" style="fill: none; stroke: #1f77b4"/>
    <path d="M 119.448497 224.28 
L 119.448497 219.429 
" clip-path="url(#p37d2f159cc)" style="fill: none; stroke: #1f77b4"/>
    <path d="M 101.66185 224.28 
L 101.66185 219.429 
" clip-path="url(#p37d2f159cc)" style="fill: none; stroke: #1f77b4"/>
    <path d="M 119.448497 224.28 
L 119.448497 219.429 
" clip-path="url(#p37d2f159cc)" style="fill: none; stroke: #1f77b4"/>
    <path d="M 89.804086 224.28 
L 89.804086 219.429 
" clip-path="url(#p37d2f159cc)" style="fill: none; stroke: #1f77b4"/>
    <path d="M 131.306262 224.28 
L 131.306262 219.429 
" clip-path="url(#p37d2f159cc)" style="fill: none; stroke: #1f77b4"/>
    <path d="M 113.519615 224.28 
L 113.519615 219.429 
" clip-path="url(#p37d2f159cc)" style="fill: none; stroke: #1f77b4"/>
    <path d="M 232.097261 224.28 
L 232.097261 219.429 
" clip-path="url(#p37d2f159cc)" style="fill: none; stroke: #ff7f0e"/>
    <path d="M 196.523967 224.28 
L 196.523967 219.429 
" clip-path="url(#p37d2f159cc)" style="fill: none; stroke: #ff7f0e"/>
    <path d="M 226.168379 224.28 
L 226.168379 219.429 
" clip-path="url(#p37d2f159cc)" style="fill: none; stroke: #ff7f0e"/>
    <path d="M 143.164027 224.28 
L 143.164027 219.429 
" clip-path="url(#p37d2f159cc)" style="fill: none; stroke: #ff7f0e"/>
    <path d="M 202.45285 224.28 
L 202.45285 219.429 
" clip-path="url(#p37d2f159cc)" style="fill: none; stroke: #ff7f0e"/>
    <path d="M 155.021791 224.28 
L 155.021791 219.429 
" clip-path="url(#p37d2f159cc)" style="fill: none; stroke: #ff7f0e"/>
    <path d="M 190.595085 224.28 
L 190.595085 219.429 
" clip-path="url(#p37d2f159cc)" style="fill: none; stroke: #ff7f0e"/>
    <path d="M 107.590733 224.28 
L 107.590733 219.429 
" clip-path="url(#p37d2f159cc)" style="fill: none; stroke: #ff7f0e"/>
    <path d="M 208.381732 224.28 
L 208.381732 219.429 
" clip-path="url(#p37d2f159cc)" style="fill: none; stroke: #ff7f0e"/>
    <path d="M 125.37738 224.28 
L 125.37738 219.429 
" clip-path="url(#p37d2f159cc)" style="fill: none; stroke: #ff7f0e"/>
    <path d="M 113.519615 224.28 
L 113.519615 219.429 
" clip-path="url(#p37d2f159cc)" style="fill: none; stroke: #ff7f0e"/>
    <path d="M 166.879556 224.28 
L 166.879556 219.429 
" clip-path="url(#p37d2f159cc)" style="fill: none; stroke: #ff7f0e"/>
    <path d="M 172.808438 224.28 
L 172.808438 219.429 
" clip-path="url(#p37d2f159cc)" style="fill: none; stroke: #ff7f0e"/>
    <path d="M 178.73732 224.28 
L 178.73732 219.429 
" clip-path="url(#p37d2f159cc)" style="fill: none; stroke: #ff7f0e"/>
    <path d="M 149.092909 224.28 
L 149.092909 219.429 
" clip-path="url(#p37d2f159cc)" style="fill: none; stroke: #ff7f0e"/>
    <path d="M 214.310614 224.28 
L 214.310614 219.429 
" clip-path="url(#p37d2f159cc)" style="fill: none; stroke: #ff7f0e"/>
    <path d="M 149.092909 224.28 
L 149.092909 219.429 
" clip-path="url(#p37d2f159cc)" style="fill: none; stroke: #ff7f0e"/>
    <path d="M 160.950674 224.28 
L 160.950674 219.429 
" clip-path="url(#p37d2f159cc)" style="fill: none; stroke: #ff7f0e"/>
    <path d="M 184.666203 224.28 
L 184.666203 219.429 
" clip-path="url(#p37d2f159cc)" style="fill: none; stroke: #ff7f0e"/>
    <path d="M 149.092909 224.28 
L 149.092909 219.429 
" clip-path="url(#p37d2f159cc)" style="fill: none; stroke: #ff7f0e"/>
    <path d="M 166.879556 224.28 
L 166.879556 219.429 
" clip-path="url(#p37d2f159cc)" style="fill: none; stroke: #ff7f0e"/>
    <path d="M 178.73732 224.28 
L 178.73732 219.429 
" clip-path="url(#p37d2f159cc)" style="fill: none; stroke: #ff7f0e"/>
    <path d="M 190.595085 224.28 
L 190.595085 219.429 
" clip-path="url(#p37d2f159cc)" style="fill: none; stroke: #ff7f0e"/>
    <path d="M 178.73732 224.28 
L 178.73732 219.429 
" clip-path="url(#p37d2f159cc)" style="fill: none; stroke: #ff7f0e"/>
    <path d="M 196.523967 224.28 
L 196.523967 219.429 
" clip-path="url(#p37d2f159cc)" style="fill: none; stroke: #ff7f0e"/>
    <path d="M 208.381732 224.28 
L 208.381732 219.429 
" clip-path="url(#p37d2f159cc)" style="fill: none; stroke: #ff7f0e"/>
    <path d="M 220.239497 224.28 
L 220.239497 219.429 
" clip-path="url(#p37d2f159cc)" style="fill: none; stroke: #ff7f0e"/>
    <path d="M 214.310614 224.28 
L 214.310614 219.429 
" clip-path="url(#p37d2f159cc)" style="fill: none; stroke: #ff7f0e"/>
    <path d="M 172.808438 224.28 
L 172.808438 219.429 
" clip-path="url(#p37d2f159cc)" style="fill: none; stroke: #ff7f0e"/>
    <path d="M 155.021791 224.28 
L 155.021791 219.429 
" clip-path="url(#p37d2f159cc)" style="fill: none; stroke: #ff7f0e"/>
    <path d="M 143.164027 224.28 
L 143.164027 219.429 
" clip-path="url(#p37d2f159cc)" style="fill: none; stroke: #ff7f0e"/>
    <path d="M 143.164027 224.28 
L 143.164027 219.429 
" clip-path="url(#p37d2f159cc)" style="fill: none; stroke: #ff7f0e"/>
    <path d="M 160.950674 224.28 
L 160.950674 219.429 
" clip-path="url(#p37d2f159cc)" style="fill: none; stroke: #ff7f0e"/>
    <path d="M 172.808438 224.28 
L 172.808438 219.429 
" clip-path="url(#p37d2f159cc)" style="fill: none; stroke: #ff7f0e"/>
    <path d="M 137.235144 224.28 
L 137.235144 219.429 
" clip-path="url(#p37d2f159cc)" style="fill: none; stroke: #ff7f0e"/>
    <path d="M 172.808438 224.28 
L 172.808438 219.429 
" clip-path="url(#p37d2f159cc)" style="fill: none; stroke: #ff7f0e"/>
    <path d="M 214.310614 224.28 
L 214.310614 219.429 
" clip-path="url(#p37d2f159cc)" style="fill: none; stroke: #ff7f0e"/>
    <path d="M 190.595085 224.28 
L 190.595085 219.429 
" clip-path="url(#p37d2f159cc)" style="fill: none; stroke: #ff7f0e"/>
    <path d="M 149.092909 224.28 
L 149.092909 219.429 
" clip-path="url(#p37d2f159cc)" style="fill: none; stroke: #ff7f0e"/>
    <path d="M 143.164027 224.28 
L 143.164027 219.429 
" clip-path="url(#p37d2f159cc)" style="fill: none; stroke: #ff7f0e"/>
    <path d="M 143.164027 224.28 
L 143.164027 219.429 
" clip-path="url(#p37d2f159cc)" style="fill: none; stroke: #ff7f0e"/>
    <path d="M 178.73732 224.28 
L 178.73732 219.429 
" clip-path="url(#p37d2f159cc)" style="fill: none; stroke: #ff7f0e"/>
    <path d="M 160.950674 224.28 
L 160.950674 219.429 
" clip-path="url(#p37d2f159cc)" style="fill: none; stroke: #ff7f0e"/>
    <path d="M 113.519615 224.28 
L 113.519615 219.429 
" clip-path="url(#p37d2f159cc)" style="fill: none; stroke: #ff7f0e"/>
    <path d="M 149.092909 224.28 
L 149.092909 219.429 
" clip-path="url(#p37d2f159cc)" style="fill: none; stroke: #ff7f0e"/>
    <path d="M 155.021791 224.28 
L 155.021791 219.429 
" clip-path="url(#p37d2f159cc)" style="fill: none; stroke: #ff7f0e"/>
    <path d="M 155.021791 224.28 
L 155.021791 219.429 
" clip-path="url(#p37d2f159cc)" style="fill: none; stroke: #ff7f0e"/>
    <path d="M 184.666203 224.28 
L 184.666203 219.429 
" clip-path="url(#p37d2f159cc)" style="fill: none; stroke: #ff7f0e"/>
    <path d="M 119.448497 224.28 
L 119.448497 219.429 
" clip-path="url(#p37d2f159cc)" style="fill: none; stroke: #ff7f0e"/>
    <path d="M 155.021791 224.28 
L 155.021791 219.429 
" clip-path="url(#p37d2f159cc)" style="fill: none; stroke: #ff7f0e"/>
    <path d="M 190.595085 224.28 
L 190.595085 219.429 
" clip-path="url(#p37d2f159cc)" style="fill: none; stroke: #2ca02c"/>
    <path d="M 160.950674 224.28 
L 160.950674 219.429 
" clip-path="url(#p37d2f159cc)" style="fill: none; stroke: #2ca02c"/>
    <path d="M 238.026144 224.28 
L 238.026144 219.429 
" clip-path="url(#p37d2f159cc)" style="fill: none; stroke: #2ca02c"/>
    <path d="M 190.595085 224.28 
L 190.595085 219.429 
" clip-path="url(#p37d2f159cc)" style="fill: none; stroke: #2ca02c"/>
    <path d="M 202.45285 224.28 
L 202.45285 219.429 
" clip-path="url(#p37d2f159cc)" style="fill: none; stroke: #2ca02c"/>
    <path d="M 267.670555 224.28 
L 267.670555 219.429 
" clip-path="url(#p37d2f159cc)" style="fill: none; stroke: #2ca02c"/>
    <path d="M 107.590733 224.28 
L 107.590733 219.429 
" clip-path="url(#p37d2f159cc)" style="fill: none; stroke: #2ca02c"/>
    <path d="M 249.883908 224.28 
L 249.883908 219.429 
" clip-path="url(#p37d2f159cc)" style="fill: none; stroke: #2ca02c"/>
    <path d="M 214.310614 224.28 
L 214.310614 219.429 
" clip-path="url(#p37d2f159cc)" style="fill: none; stroke: #2ca02c"/>
    <path d="M 243.955026 224.28 
L 243.955026 219.429 
" clip-path="url(#p37d2f159cc)" style="fill: none; stroke: #2ca02c"/>
    <path d="M 202.45285 224.28 
L 202.45285 219.429 
" clip-path="url(#p37d2f159cc)" style="fill: none; stroke: #2ca02c"/>
    <path d="M 196.523967 224.28 
L 196.523967 219.429 
" clip-path="url(#p37d2f159cc)" style="fill: none; stroke: #2ca02c"/>
    <path d="M 220.239497 224.28 
L 220.239497 219.429 
" clip-path="url(#p37d2f159cc)" style="fill: none; stroke: #2ca02c"/>
    <path d="M 155.021791 224.28 
L 155.021791 219.429 
" clip-path="url(#p37d2f159cc)" style="fill: none; stroke: #2ca02c"/>
    <path d="M 160.950674 224.28 
L 160.950674 219.429 
" clip-path="url(#p37d2f159cc)" style="fill: none; stroke: #2ca02c"/>
    <path d="M 196.523967 224.28 
L 196.523967 219.429 
" clip-path="url(#p37d2f159cc)" style="fill: none; stroke: #2ca02c"/>
    <path d="M 202.45285 224.28 
L 202.45285 219.429 
" clip-path="url(#p37d2f159cc)" style="fill: none; stroke: #2ca02c"/>
    <path d="M 273.599437 224.28 
L 273.599437 219.429 
" clip-path="url(#p37d2f159cc)" style="fill: none; stroke: #2ca02c"/>
    <path d="M 273.599437 224.28 
L 273.599437 219.429 
" clip-path="url(#p37d2f159cc)" style="fill: none; stroke: #2ca02c"/>
    <path d="M 172.808438 224.28 
L 172.808438 219.429 
" clip-path="url(#p37d2f159cc)" style="fill: none; stroke: #2ca02c"/>
    <path d="M 226.168379 224.28 
L 226.168379 219.429 
" clip-path="url(#p37d2f159cc)" style="fill: none; stroke: #2ca02c"/>
    <path d="M 149.092909 224.28 
L 149.092909 219.429 
" clip-path="url(#p37d2f159cc)" style="fill: none; stroke: #2ca02c"/>
    <path d="M 273.599437 224.28 
L 273.599437 219.429 
" clip-path="url(#p37d2f159cc)" style="fill: none; stroke: #2ca02c"/>
    <path d="M 190.595085 224.28 
L 190.595085 219.429 
" clip-path="url(#p37d2f159cc)" style="fill: none; stroke: #2ca02c"/>
    <path d="M 214.310614 224.28 
L 214.310614 219.429 
" clip-path="url(#p37d2f159cc)" style="fill: none; stroke: #2ca02c"/>
    <path d="M 243.955026 224.28 
L 243.955026 219.429 
" clip-path="url(#p37d2f159cc)" style="fill: none; stroke: #2ca02c"/>
    <path d="M 184.666203 224.28 
L 184.666203 219.429 
" clip-path="url(#p37d2f159cc)" style="fill: none; stroke: #2ca02c"/>
    <path d="M 178.73732 224.28 
L 178.73732 219.429 
" clip-path="url(#p37d2f159cc)" style="fill: none; stroke: #2ca02c"/>
    <path d="M 196.523967 224.28 
L 196.523967 219.429 
" clip-path="url(#p37d2f159cc)" style="fill: none; stroke: #2ca02c"/>
    <path d="M 243.955026 224.28 
L 243.955026 219.429 
" clip-path="url(#p37d2f159cc)" style="fill: none; stroke: #2ca02c"/>
    <path d="M 255.81279 224.28 
L 255.81279 219.429 
" clip-path="url(#p37d2f159cc)" style="fill: none; stroke: #2ca02c"/>
    <path d="M 285.457202 224.28 
L 285.457202 219.429 
" clip-path="url(#p37d2f159cc)" style="fill: none; stroke: #2ca02c"/>
    <path d="M 196.523967 224.28 
L 196.523967 219.429 
" clip-path="url(#p37d2f159cc)" style="fill: none; stroke: #2ca02c"/>
    <path d="M 190.595085 224.28 
L 190.595085 219.429 
" clip-path="url(#p37d2f159cc)" style="fill: none; stroke: #2ca02c"/>
    <path d="M 178.73732 224.28 
L 178.73732 219.429 
" clip-path="url(#p37d2f159cc)" style="fill: none; stroke: #2ca02c"/>
    <path d="M 273.599437 224.28 
L 273.599437 219.429 
" clip-path="url(#p37d2f159cc)" style="fill: none; stroke: #2ca02c"/>
    <path d="M 190.595085 224.28 
L 190.595085 219.429 
" clip-path="url(#p37d2f159cc)" style="fill: none; stroke: #2ca02c"/>
    <path d="M 196.523967 224.28 
L 196.523967 219.429 
" clip-path="url(#p37d2f159cc)" style="fill: none; stroke: #2ca02c"/>
    <path d="M 172.808438 224.28 
L 172.808438 219.429 
" clip-path="url(#p37d2f159cc)" style="fill: none; stroke: #2ca02c"/>
    <path d="M 226.168379 224.28 
L 226.168379 219.429 
" clip-path="url(#p37d2f159cc)" style="fill: none; stroke: #2ca02c"/>
    <path d="M 214.310614 224.28 
L 214.310614 219.429 
" clip-path="url(#p37d2f159cc)" style="fill: none; stroke: #2ca02c"/>
    <path d="M 226.168379 224.28 
L 226.168379 219.429 
" clip-path="url(#p37d2f159cc)" style="fill: none; stroke: #2ca02c"/>
    <path d="M 160.950674 224.28 
L 160.950674 219.429 
" clip-path="url(#p37d2f159cc)" style="fill: none; stroke: #2ca02c"/>
    <path d="M 220.239497 224.28 
L 220.239497 219.429 
" clip-path="url(#p37d2f159cc)" style="fill: none; stroke: #2ca02c"/>
    <path d="M 214.310614 224.28 
L 214.310614 219.429 
" clip-path="url(#p37d2f159cc)" style="fill: none; stroke: #2ca02c"/>
    <path d="M 214.310614 224.28 
L 214.310614 219.429 
" clip-path="url(#p37d2f159cc)" style="fill: none; stroke: #2ca02c"/>
    <path d="M 190.595085 224.28 
L 190.595085 219.429 
" clip-path="url(#p37d2f159cc)" style="fill: none; stroke: #2ca02c"/>
    <path d="M 202.45285 224.28 
L 202.45285 219.429 
" clip-path="url(#p37d2f159cc)" style="fill: none; stroke: #2ca02c"/>
    <path d="M 184.666203 224.28 
L 184.666203 219.429 
" clip-path="url(#p37d2f159cc)" style="fill: none; stroke: #2ca02c"/>
    <path d="M 166.879556 224.28 
L 166.879556 219.429 
" clip-path="url(#p37d2f159cc)" style="fill: none; stroke: #2ca02c"/>
   </g>
   <g id="patch_3">
    <path d="M 45 224.28 
L 45 30.24 
" style="fill: none; stroke: #000000; stroke-width: 0.8; stroke-linejoin: miter; stroke-linecap: square"/>
   </g>
   <g id="patch_4">
    <path d="M 324 224.28 
L 324 30.24 
" style="fill: none; stroke: #000000; stroke-width: 0.8; stroke-linejoin: miter; stroke-linecap: square"/>
   </g>
   <g id="patch_5">
    <path d="M 45 224.28 
L 324 224.28 
" style="fill: none; stroke: #000000; stroke-width: 0.8; stroke-linejoin: miter; stroke-linecap: square"/>
   </g>
   <g id="patch_6">
    <path d="M 45 30.24 
L 324 30.24 
" style="fill: none; stroke: #000000; stroke-width: 0.8; stroke-linejoin: miter; stroke-linecap: square"/>
   </g>
   <g id="legend_1">
    <g id="patch_7">
     <path d="M 236.204688 96.9525 
L 317 96.9525 
Q 319 96.9525 319 94.9525 
L 319 37.24 
Q 319 35.24 317 35.24 
L 236.204688 35.24 
Q 234.204688 35.24 234.204688 37.24 
L 234.204688 94.9525 
Q 234.204688 96.9525 236.204688 96.9525 
z
" style="fill: #ffffff; opacity: 0.8; stroke: #cccccc; stroke-linejoin: miter"/>
    </g>
    <g id="text_14">
     <!-- species -->
     <g transform="translate(257.927344 46.838437) scale(0.1 -0.1)">
      <defs>
       <path id="DejaVuSans-63" d="M 3122 3366 
L 3122 2828 
Q 2878 2963 2633 3030 
Q 2388 3097 2138 3097 
Q 1578 3097 1268 2742 
Q 959 2388 959 1747 
Q 959 1106 1268 751 
Q 1578 397 2138 397 
Q 2388 397 2633 464 
Q 2878 531 3122 666 
L 3122 134 
Q 2881 22 2623 -34 
Q 2366 -91 2075 -91 
Q 1284 -91 818 406 
Q 353 903 353 1747 
Q 353 2603 823 3093 
Q 1294 3584 2113 3584 
Q 2378 3584 2631 3529 
Q 2884 3475 3122 3366 
z
" transform="scale(0.015625)"/>
      </defs>
      <use xlink:href="#DejaVuSans-73"/>
      <use xlink:href="#DejaVuSans-70" x="52.099609"/>
      <use xlink:href="#DejaVuSans-65" x="115.576172"/>
      <use xlink:href="#DejaVuSans-63" x="177.099609"/>
      <use xlink:href="#DejaVuSans-69" x="232.080078"/>
      <use xlink:href="#DejaVuSans-65" x="259.863281"/>
      <use xlink:href="#DejaVuSans-73" x="321.386719"/>
     </g>
    </g>
    <g id="line2d_12">
     <path d="M 238.204688 58.016562 
L 248.204688 58.016562 
L 258.204687 58.016562 
" style="fill: none; stroke: #1f77b4; stroke-width: 1.5; stroke-linecap: square"/>
    </g>
    <g id="text_15">
     <!-- setosa -->
     <g transform="translate(266.204687 61.516562) scale(0.1 -0.1)">
      <defs>
       <path id="DejaVuSans-6f" d="M 1959 3097 
Q 1497 3097 1228 2736 
Q 959 2375 959 1747 
Q 959 1119 1226 758 
Q 1494 397 1959 397 
Q 2419 397 2687 759 
Q 2956 1122 2956 1747 
Q 2956 2369 2687 2733 
Q 2419 3097 1959 3097 
z
M 1959 3584 
Q 2709 3584 3137 3096 
Q 3566 2609 3566 1747 
Q 3566 888 3137 398 
Q 2709 -91 1959 -91 
Q 1206 -91 779 398 
Q 353 888 353 1747 
Q 353 2609 779 3096 
Q 1206 3584 1959 3584 
z
" transform="scale(0.015625)"/>
      </defs>
      <use xlink:href="#DejaVuSans-73"/>
      <use xlink:href="#DejaVuSans-65" x="52.099609"/>
      <use xlink:href="#DejaVuSans-74" x="113.623047"/>
      <use xlink:href="#DejaVuSans-6f" x="152.832031"/>
      <use xlink:href="#DejaVuSans-73" x="214.013672"/>
      <use xlink:href="#DejaVuSans-61" x="266.113281"/>
     </g>
    </g>
    <g id="line2d_13">
     <path d="M 238.204688 72.694687 
L 248.204688 72.694687 
L 258.204687 72.694687 
" style="fill: none; stroke: #ff7f0e; stroke-width: 1.5; stroke-linecap: square"/>
    </g>
    <g id="text_16">
     <!-- versicolor -->
     <g transform="translate(266.204687 76.194687) scale(0.1 -0.1)">
      <defs>
       <path id="DejaVuSans-76" d="M 191 3500 
L 800 3500 
L 1894 563 
L 2988 3500 
L 3597 3500 
L 2284 0 
L 1503 0 
L 191 3500 
z
" transform="scale(0.015625)"/>
       <path id="DejaVuSans-72" d="M 2631 2963 
Q 2534 3019 2420 3045 
Q 2306 3072 2169 3072 
Q 1681 3072 1420 2755 
Q 1159 2438 1159 1844 
L 1159 0 
L 581 0 
L 581 3500 
L 1159 3500 
L 1159 2956 
Q 1341 3275 1631 3429 
Q 1922 3584 2338 3584 
Q 2397 3584 2469 3576 
Q 2541 3569 2628 3553 
L 2631 2963 
z
" transform="scale(0.015625)"/>
      </defs>
      <use xlink:href="#DejaVuSans-76"/>
      <use xlink:href="#DejaVuSans-65" x="59.179688"/>
      <use xlink:href="#DejaVuSans-72" x="120.703125"/>
      <use xlink:href="#DejaVuSans-73" x="161.816406"/>
      <use xlink:href="#DejaVuSans-69" x="213.916016"/>
      <use xlink:href="#DejaVuSans-63" x="241.699219"/>
      <use xlink:href="#DejaVuSans-6f" x="296.679688"/>
      <use xlink:href="#DejaVuSans-6c" x="357.861328"/>
      <use xlink:href="#DejaVuSans-6f" x="385.644531"/>
      <use xlink:href="#DejaVuSans-72" x="446.826172"/>
     </g>
    </g>
    <g id="line2d_14">
     <path d="M 238.204688 87.372813 
L 248.204688 87.372813 
L 258.204687 87.372813 
" style="fill: none; stroke: #2ca02c; stroke-width: 1.5; stroke-linecap: square"/>
    </g>
    <g id="text_17">
     <!-- virginica -->
     <g transform="translate(266.204687 90.872813) scale(0.1 -0.1)">
      <use xlink:href="#DejaVuSans-76"/>
      <use xlink:href="#DejaVuSans-69" x="59.179688"/>
      <use xlink:href="#DejaVuSans-72" x="86.962891"/>
      <use xlink:href="#DejaVuSans-67" x="126.326172"/>
      <use xlink:href="#DejaVuSans-69" x="189.802734"/>
      <use xlink:href="#DejaVuSans-6e" x="217.585938"/>
      <use xlink:href="#DejaVuSans-69" x="280.964844"/>
      <use xlink:href="#DejaVuSans-63" x="308.748047"/>
      <use xlink:href="#DejaVuSans-61" x="363.728516"/>
     </g>
    </g>
   </g>
  </g>
 </g>
 <defs>
  <clipPath id="p37d2f159cc">
   <rect x="45" y="30.24" width="279" height="194.04"/>
  </clipPath>
 </defs>
</svg>
