<?xml version="1.0" encoding="utf-8" standalone="no"?>
<!DOCTYPE svg PUBLIC "-//W3C//DTD SVG 1.1//EN"
  "http://www.w3.org/Graphics/SVG/1.1/DTD/svg11.dtd">
<svg xmlns:xlink="http://www.w3.org/1999/xlink" width="460.8pt" height="345.6pt" viewBox="0 0 460.8 345.6" xmlns="http://www.w3.org/2000/svg" version="1.1">
 <metadata>
  <rdf:RDF xmlns:dc="http://purl.org/dc/elements/1.1/" xmlns:cc="http://creativecommons.org/ns#" xmlns:rdf="http://www.w3.org/1999/02/22-rdf-syntax-ns#">
   <cc:Work>
    <dc:type rdf:resource="http://purl.org/dc/dcmitype/StillImage"/>
    <dc:date>2024-08-09T10:58:07.397677</dc:date>
    <dc:format>image/svg+xml</dc:format>
    <dc:creator>
     <cc:Agent>
      <dc:title>Matplotlib v3.8.0, https://matplotlib.org/</dc:title>
     </cc:Agent>
    </dc:creator>
   </cc:Work>
  </rdf:RDF>
 </metadata>
 <defs>
  <style type="text/css">*{stroke-linejoin: round; stroke-linecap: butt}</style>
 </defs>
 <g id="figure_1">
  <g id="patch_1">
   <path d="M 0 345.6 
L 460.8 345.6 
L 460.8 0 
L 0 0 
z
" style="fill: #ffffff"/>
  </g>
  <g id="axes_1">
   <g id="patch_2">
    <path d="M 98.806154 208.866462 
C 107.91282 208.866462 116.647727 205.248345 123.087113 198.808959 
C 129.526498 192.369573 133.144615 183.634666 133.144615 174.528 
C 133.144615 165.421334 129.526498 156.686427 123.087113 150.247041 
C 116.647727 143.807655 107.91282 140.189538 98.806154 140.189538 
C 89.699487 140.189538 80.96458 143.807655 74.525195 150.247041 
C 68.085809 156.686427 64.467692 165.421334 64.467692 174.528 
C 64.467692 183.634666 68.085809 192.369573 74.525195 198.808959 
C 80.96458 205.248345 89.699487 208.866462 98.806154 208.866462 
z
" clip-path="url(#p86a1a03da2)" style="fill: #4f81ba; stroke: #ffffff; stroke-linejoin: miter"/>
   </g>
   <g id="patch_3">
    <path d="M 167.483077 208.866462 
C 176.589743 208.866462 185.32465 205.248345 191.764036 198.808959 
C 198.203422 192.369573 201.821538 183.634666 201.821538 174.528 
C 201.821538 165.421334 198.203422 156.686427 191.764036 150.247041 
C 185.32465 143.807655 176.589743 140.189538 167.483077 140.189538 
C 158.37641 140.189538 149.641504 143.807655 143.202118 150.247041 
C 136.762732 156.686427 133.144615 165.421334 133.144615 174.528 
C 133.144615 183.634666 136.762732 192.369573 143.202118 198.808959 
C 149.641504 205.248345 158.37641 208.866462 167.483077 208.866462 
z
" clip-path="url(#p86a1a03da2)" style="fill: #313695; stroke: #ffffff; stroke-linejoin: miter"/>
   </g>
   <g id="patch_4">
    <path d="M 236.16 208.866462 
C 245.266666 208.866462 254.001573 205.248345 260.440959 198.808959 
C 266.880345 192.369573 270.498462 183.634666 270.498462 174.528 
C 270.498462 165.421334 266.880345 156.686427 260.440959 150.247041 
C 254.001573 143.807655 245.266666 140.189538 236.16 140.189538 
C 227.053334 140.189538 218.318427 143.807655 211.879041 150.247041 
C 205.439655 156.686427 201.821538 165.421334 201.821538 174.528 
C 201.821538 183.634666 205.439655 192.369573 211.879041 198.808959 
C 218.318427 205.248345 227.053334 208.866462 236.16 208.866462 
z
" clip-path="url(#p86a1a03da2)" style="fill: #313695; stroke: #ffffff; stroke-linejoin: miter"/>
   </g>
   <g id="patch_5">
    <path d="M 304.836923 208.866462 
C 313.94359 208.866462 322.678496 205.248345 329.117882 198.808959 
C 335.557268 192.369573 339.175385 183.634666 339.175385 174.528 
C 339.175385 165.421334 335.557268 156.686427 329.117882 150.247041 
C 322.678496 143.807655 313.94359 140.189538 304.836923 140.189538 
C 295.730257 140.189538 286.99535 143.807655 280.555964 150.247041 
C 274.116578 156.686427 270.498462 165.421334 270.498462 174.528 
C 270.498462 183.634666 274.116578 192.369573 280.555964 198.808959 
C 286.99535 205.248345 295.730257 208.866462 304.836923 208.866462 
z
" clip-path="url(#p86a1a03da2)" style="fill: #313695; stroke: #ffffff; stroke-linejoin: miter"/>
   </g>
   <g id="text_1">
    <!-- 1.0 -->
    <g transform="translate(90.854591 177.287375) scale(0.1 -0.1)">
     <defs>
      <path id="DejaVuSans-31" d="M 794 531 
L 1825 531 
L 1825 4091 
L 703 3866 
L 703 4441 
L 1819 4666 
L 2450 4666 
L 2450 531 
L 3481 531 
L 3481 0 
L 794 0 
L 794 531 
z
" transform="scale(0.015625)"/>
      <path id="DejaVuSans-2e" d="M 684 794 
L 1344 794 
L 1344 0 
L 684 0 
L 684 794 
z
" transform="scale(0.015625)"/>
      <path id="DejaVuSans-30" d="M 2034 4250 
Q 1547 4250 1301 3770 
Q 1056 3291 1056 2328 
Q 1056 1369 1301 889 
Q 1547 409 2034 409 
Q 2525 409 2770 889 
Q 3016 1369 3016 2328 
Q 3016 3291 2770 3770 
Q 2525 4250 2034 4250 
z
M 2034 4750 
Q 2819 4750 3233 4129 
Q 3647 3509 3647 2328 
Q 3647 1150 3233 529 
Q 2819 -91 2034 -91 
Q 1250 -91 836 529 
Q 422 1150 422 2328 
Q 422 3509 836 4129 
Q 1250 4750 2034 4750 
z
" transform="scale(0.015625)"/>
     </defs>
     <use xlink:href="#DejaVuSans-31"/>
     <use xlink:href="#DejaVuSans-2e" x="63.623047"/>
     <use xlink:href="#DejaVuSans-30" x="95.410156"/>
    </g>
   </g>
   <g id="text_2">
    <!-- 0.0 -->
    <g transform="translate(159.531514 177.287375) scale(0.1 -0.1)">
     <use xlink:href="#DejaVuSans-30"/>
     <use xlink:href="#DejaVuSans-2e" x="63.623047"/>
     <use xlink:href="#DejaVuSans-30" x="95.410156"/>
    </g>
   </g>
   <g id="text_3">
    <!-- 0.0 -->
    <g transform="translate(228.208438 177.287375) scale(0.1 -0.1)">
     <use xlink:href="#DejaVuSans-30"/>
     <use xlink:href="#DejaVuSans-2e" x="63.623047"/>
     <use xlink:href="#DejaVuSans-30" x="95.410156"/>
    </g>
   </g>
   <g id="text_4">
    <!-- 0.0 -->
    <g transform="translate(296.885361 177.287375) scale(0.1 -0.1)">
     <use xlink:href="#DejaVuSans-30"/>
     <use xlink:href="#DejaVuSans-2e" x="63.623047"/>
     <use xlink:href="#DejaVuSans-30" x="95.410156"/>
    </g>
   </g>
  </g>
 </g>
 <defs>
  <clipPath id="p86a1a03da2">
   <rect x="57.6" y="133.321846" width="357.12" height="82.412308"/>
  </clipPath>
 </defs>
</svg>
