<?xml version="1.0" encoding="utf-8" standalone="no"?>
<!DOCTYPE svg PUBLIC "-//W3C//DTD SVG 1.1//EN"
  "http://www.w3.org/Graphics/SVG/1.1/DTD/svg11.dtd">
<svg xmlns:xlink="http://www.w3.org/1999/xlink" width="460.8pt" height="345.6pt" viewBox="0 0 460.8 345.6" xmlns="http://www.w3.org/2000/svg" version="1.1">
 <metadata>
  <rdf:RDF xmlns:dc="http://purl.org/dc/elements/1.1/" xmlns:cc="http://creativecommons.org/ns#" xmlns:rdf="http://www.w3.org/1999/02/22-rdf-syntax-ns#">
   <cc:Work>
    <dc:type rdf:resource="http://purl.org/dc/dcmitype/StillImage"/>
    <dc:date>2024-08-09T10:58:02.899651</dc:date>
    <dc:format>image/svg+xml</dc:format>
    <dc:creator>
     <cc:Agent>
      <dc:title>Matplotlib v3.8.0, https://matplotlib.org/</dc:title>
     </cc:Agent>
    </dc:creator>
   </cc:Work>
  </rdf:RDF>
 </metadata>
 <defs>
  <style type="text/css">*{stroke-linejoin: round; stroke-linecap: butt}</style>
 </defs>
 <g id="figure_1">
  <g id="patch_1">
   <path d="M 0 345.6 
L 460.8 345.6 
L 460.8 0 
L 0 0 
z
" style="fill: #ffffff"/>
  </g>
  <g id="axes_1">
   <g id="patch_2">
    <path d="M 87.36 199.328 
C 93.937037 199.328 100.245581 196.714916 104.896248 192.064248 
C 109.546916 187.413581 112.16 181.105037 112.16 174.528 
C 112.16 167.950963 109.546916 161.642419 104.896248 156.991752 
C 100.245581 152.341084 93.937037 149.728 87.36 149.728 
C 80.782963 149.728 74.474419 152.341084 69.823752 156.991752 
C 65.173084 161.642419 62.56 167.950963 62.56 174.528 
C 62.56 181.105037 65.173084 187.413581 69.823752 192.064248 
C 74.474419 196.714916 80.782963 199.328 87.36 199.328 
z
" clip-path="url(#p9299f7185d)" style="fill: #a50026; stroke: #ffffff; stroke-linejoin: miter"/>
   </g>
   <g id="patch_3">
    <path d="M 136.96 199.328 
C 143.537037 199.328 149.845581 196.714916 154.496248 192.064248 
C 159.146916 187.413581 161.76 181.105037 161.76 174.528 
C 161.76 167.950963 159.146916 161.642419 154.496248 156.991752 
C 149.845581 152.341084 143.537037 149.728 136.96 149.728 
C 130.382963 149.728 124.074419 152.341084 119.423752 156.991752 
C 114.773084 161.642419 112.16 167.950963 112.16 174.528 
C 112.16 181.105037 114.773084 187.413581 119.423752 192.064248 
C 124.074419 196.714916 130.382963 199.328 136.96 199.328 
z
" clip-path="url(#p9299f7185d)" style="fill: #da362a; stroke: #ffffff; stroke-linejoin: miter"/>
   </g>
   <g id="patch_4">
    <path d="M 186.56 199.328 
C 193.137037 199.328 199.445581 196.714916 204.096248 192.064248 
C 208.746916 187.413581 211.36 181.105037 211.36 174.528 
C 211.36 167.950963 208.746916 161.642419 204.096248 156.991752 
C 199.445581 152.341084 193.137037 149.728 186.56 149.728 
C 179.982963 149.728 173.674419 152.341084 169.023752 156.991752 
C 164.373084 161.642419 161.76 167.950963 161.76 174.528 
C 161.76 181.105037 164.373084 187.413581 169.023752 192.064248 
C 173.674419 196.714916 179.982963 199.328 186.56 199.328 
z
" clip-path="url(#p9299f7185d)" style="fill: #fdbf71; stroke: #ffffff; stroke-linejoin: miter"/>
   </g>
   <g id="patch_5">
    <path d="M 236.16 199.328 
C 242.737037 199.328 249.045581 196.714916 253.696248 192.064248 
C 258.346916 187.413581 260.96 181.105037 260.96 174.528 
C 260.96 167.950963 258.346916 161.642419 253.696248 156.991752 
C 249.045581 152.341084 242.737037 149.728 236.16 149.728 
C 229.582963 149.728 223.274419 152.341084 218.623752 156.991752 
C 213.973084 161.642419 211.36 167.950963 211.36 174.528 
C 211.36 181.105037 213.973084 187.413581 218.623752 192.064248 
C 223.274419 196.714916 229.582963 199.328 236.16 199.328 
z
" clip-path="url(#p9299f7185d)" style="fill: #a50026; stroke: #ffffff; stroke-linejoin: miter"/>
   </g>
   <g id="patch_6">
    <path d="M 285.76 199.328 
C 292.337037 199.328 298.645581 196.714916 303.296248 192.064248 
C 307.946916 187.413581 310.56 181.105037 310.56 174.528 
C 310.56 167.950963 307.946916 161.642419 303.296248 156.991752 
C 298.645581 152.341084 292.337037 149.728 285.76 149.728 
C 279.182963 149.728 272.874419 152.341084 268.223752 156.991752 
C 263.573084 161.642419 260.96 167.950963 260.96 174.528 
C 260.96 181.105037 263.573084 187.413581 268.223752 192.064248 
C 272.874419 196.714916 279.182963 199.328 285.76 199.328 
z
" clip-path="url(#p9299f7185d)" style="fill: #feeda4; stroke: #ffffff; stroke-linejoin: miter"/>
   </g>
   <g id="patch_7">
    <path d="M 335.36 199.328 
C 341.937037 199.328 348.245581 196.714916 352.896248 192.064248 
C 357.546916 187.413581 360.16 181.105037 360.16 174.528 
C 360.16 167.950963 357.546916 161.642419 352.896248 156.991752 
C 348.245581 152.341084 341.937037 149.728 335.36 149.728 
C 328.782963 149.728 322.474419 152.341084 317.823752 156.991752 
C 313.173084 161.642419 310.56 167.950963 310.56 174.528 
C 310.56 181.105037 313.173084 187.413581 317.823752 192.064248 
C 322.474419 196.714916 328.782963 199.328 335.36 199.328 
z
" clip-path="url(#p9299f7185d)" style="fill: #a50026; stroke: #ffffff; stroke-linejoin: miter"/>
   </g>
   <g id="text_1">
    <!-- 9.0 -->
    <g transform="translate(79.408438 177.287375) scale(0.1 -0.1)">
     <defs>
      <path id="DejaVuSans-39" d="M 703 97 
L 703 672 
Q 941 559 1184 500 
Q 1428 441 1663 441 
Q 2288 441 2617 861 
Q 2947 1281 2994 2138 
Q 2813 1869 2534 1725 
Q 2256 1581 1919 1581 
Q 1219 1581 811 2004 
Q 403 2428 403 3163 
Q 403 3881 828 4315 
Q 1253 4750 1959 4750 
Q 2769 4750 3195 4129 
Q 3622 3509 3622 2328 
Q 3622 1225 3098 567 
Q 2575 -91 1691 -91 
Q 1453 -91 1209 -44 
Q 966 3 703 97 
z
M 1959 2075 
Q 2384 2075 2632 2365 
Q 2881 2656 2881 3163 
Q 2881 3666 2632 3958 
Q 2384 4250 1959 4250 
Q 1534 4250 1286 3958 
Q 1038 3666 1038 3163 
Q 1038 2656 1286 2365 
Q 1534 2075 1959 2075 
z
" transform="scale(0.015625)"/>
      <path id="DejaVuSans-2e" d="M 684 794 
L 1344 794 
L 1344 0 
L 684 0 
L 684 794 
z
" transform="scale(0.015625)"/>
      <path id="DejaVuSans-30" d="M 2034 4250 
Q 1547 4250 1301 3770 
Q 1056 3291 1056 2328 
Q 1056 1369 1301 889 
Q 1547 409 2034 409 
Q 2525 409 2770 889 
Q 3016 1369 3016 2328 
Q 3016 3291 2770 3770 
Q 2525 4250 2034 4250 
z
M 2034 4750 
Q 2819 4750 3233 4129 
Q 3647 3509 3647 2328 
Q 3647 1150 3233 529 
Q 2819 -91 2034 -91 
Q 1250 -91 836 529 
Q 422 1150 422 2328 
Q 422 3509 836 4129 
Q 1250 4750 2034 4750 
z
" transform="scale(0.015625)"/>
     </defs>
     <use xlink:href="#DejaVuSans-39"/>
     <use xlink:href="#DejaVuSans-2e" x="63.623047"/>
     <use xlink:href="#DejaVuSans-30" x="95.410156"/>
    </g>
   </g>
   <g id="text_2">
    <!-- 8.0 -->
    <g transform="translate(129.008438 177.287375) scale(0.1 -0.1)">
     <defs>
      <path id="DejaVuSans-38" d="M 2034 2216 
Q 1584 2216 1326 1975 
Q 1069 1734 1069 1313 
Q 1069 891 1326 650 
Q 1584 409 2034 409 
Q 2484 409 2743 651 
Q 3003 894 3003 1313 
Q 3003 1734 2745 1975 
Q 2488 2216 2034 2216 
z
M 1403 2484 
Q 997 2584 770 2862 
Q 544 3141 544 3541 
Q 544 4100 942 4425 
Q 1341 4750 2034 4750 
Q 2731 4750 3128 4425 
Q 3525 4100 3525 3541 
Q 3525 3141 3298 2862 
Q 3072 2584 2669 2484 
Q 3125 2378 3379 2068 
Q 3634 1759 3634 1313 
Q 3634 634 3220 271 
Q 2806 -91 2034 -91 
Q 1263 -91 848 271 
Q 434 634 434 1313 
Q 434 1759 690 2068 
Q 947 2378 1403 2484 
z
M 1172 3481 
Q 1172 3119 1398 2916 
Q 1625 2713 2034 2713 
Q 2441 2713 2670 2916 
Q 2900 3119 2900 3481 
Q 2900 3844 2670 4047 
Q 2441 4250 2034 4250 
Q 1625 4250 1398 4047 
Q 1172 3844 1172 3481 
z
" transform="scale(0.015625)"/>
     </defs>
     <use xlink:href="#DejaVuSans-38"/>
     <use xlink:href="#DejaVuSans-2e" x="63.623047"/>
     <use xlink:href="#DejaVuSans-30" x="95.410156"/>
    </g>
   </g>
   <g id="text_3">
    <!-- 6.0 -->
    <g transform="translate(178.608438 177.287375) scale(0.1 -0.1)">
     <defs>
      <path id="DejaVuSans-36" d="M 2113 2584 
Q 1688 2584 1439 2293 
Q 1191 2003 1191 1497 
Q 1191 994 1439 701 
Q 1688 409 2113 409 
Q 2538 409 2786 701 
Q 3034 994 3034 1497 
Q 3034 2003 2786 2293 
Q 2538 2584 2113 2584 
z
M 3366 4563 
L 3366 3988 
Q 3128 4100 2886 4159 
Q 2644 4219 2406 4219 
Q 1781 4219 1451 3797 
Q 1122 3375 1075 2522 
Q 1259 2794 1537 2939 
Q 1816 3084 2150 3084 
Q 2853 3084 3261 2657 
Q 3669 2231 3669 1497 
Q 3669 778 3244 343 
Q 2819 -91 2113 -91 
Q 1303 -91 875 529 
Q 447 1150 447 2328 
Q 447 3434 972 4092 
Q 1497 4750 2381 4750 
Q 2619 4750 2861 4703 
Q 3103 4656 3366 4563 
z
" transform="scale(0.015625)"/>
     </defs>
     <use xlink:href="#DejaVuSans-36"/>
     <use xlink:href="#DejaVuSans-2e" x="63.623047"/>
     <use xlink:href="#DejaVuSans-30" x="95.410156"/>
    </g>
   </g>
   <g id="text_4">
    <!-- 9.0 -->
    <g transform="translate(228.208438 177.287375) scale(0.1 -0.1)">
     <use xlink:href="#DejaVuSans-39"/>
     <use xlink:href="#DejaVuSans-2e" x="63.623047"/>
     <use xlink:href="#DejaVuSans-30" x="95.410156"/>
    </g>
   </g>
   <g id="text_5">
    <!-- 5.0 -->
    <g transform="translate(277.808437 177.287375) scale(0.1 -0.1)">
     <defs>
      <path id="DejaVuSans-35" d="M 691 4666 
L 3169 4666 
L 3169 4134 
L 1269 4134 
L 1269 2991 
Q 1406 3038 1543 3061 
Q 1681 3084 1819 3084 
Q 2600 3084 3056 2656 
Q 3513 2228 3513 1497 
Q 3513 744 3044 326 
Q 2575 -91 1722 -91 
Q 1428 -91 1123 -41 
Q 819 9 494 109 
L 494 744 
Q 775 591 1075 516 
Q 1375 441 1709 441 
Q 2250 441 2565 725 
Q 2881 1009 2881 1497 
Q 2881 1984 2565 2268 
Q 2250 2553 1709 2553 
Q 1456 2553 1204 2497 
Q 953 2441 691 2322 
L 691 4666 
z
" transform="scale(0.015625)"/>
     </defs>
     <use xlink:href="#DejaVuSans-35"/>
     <use xlink:href="#DejaVuSans-2e" x="63.623047"/>
     <use xlink:href="#DejaVuSans-30" x="95.410156"/>
    </g>
   </g>
   <g id="text_6">
    <!-- 9.0 -->
    <g transform="translate(327.408437 177.287375) scale(0.1 -0.1)">
     <use xlink:href="#DejaVuSans-39"/>
     <use xlink:href="#DejaVuSans-2e" x="63.623047"/>
     <use xlink:href="#DejaVuSans-30" x="95.410156"/>
    </g>
   </g>
  </g>
 </g>
 <defs>
  <clipPath id="p9299f7185d">
   <rect x="57.6" y="144.768" width="357.12" height="59.52"/>
  </clipPath>
 </defs>
</svg>
